<?xml version="1.0" encoding="UTF-8" standalone="no"?>
<!-- Created with Inkscape (http://www.inkscape.org/) -->

<svg
   xmlns:dc="http://purl.org/dc/elements/1.1/"
   xmlns:cc="http://creativecommons.org/ns#"
   xmlns:rdf="http://www.w3.org/1999/02/22-rdf-syntax-ns#"
   xmlns:svg="http://www.w3.org/2000/svg"
   xmlns="http://www.w3.org/2000/svg"
   xmlns:sodipodi="http://sodipodi.sourceforge.net/DTD/sodipodi-0.dtd"
   xmlns:inkscape="http://www.inkscape.org/namespaces/inkscape"
   version="1.1"
   id="svg268"
   width="250"
   height="254"
   viewBox="0 0 250 254"
   sodipodi:docname="crop196.png">
  <metadata
     id="metadata274">
    <rdf:RDF>
      <cc:Work
         rdf:about="">
        <dc:format>image/svg+xml</dc:format>
        <dc:type
           rdf:resource="http://purl.org/dc/dcmitype/StillImage" />
      </cc:Work>
    </rdf:RDF>
  </metadata>
  <defs
     id="defs272" />
  <sodipodi:namedview
     pagecolor="#ffffff"
     bordercolor="#666666"
     borderopacity="1"
     objecttolerance="10"
     gridtolerance="10"
     guidetolerance="10"
     inkscape:pageopacity="0"
     inkscape:pageshadow="2"
     inkscape:window-width="640"
     inkscape:window-height="480"
     id="namedview270"
     showgrid="false" />
  <g
     id="g278"
     transform="translate(-5.1428396,-0.03072)"
     inkscape:export-xdpi="23.525379"
     inkscape:export-ydpi="23.525379">
    <path
       style="fill:#cfcfcf"
       d="m 67.255553,252.75 c -0.544136,-0.6875 -1.962237,-4.175 -3.151337,-7.75 -3.244245,-9.75375 -8.150687,-18.275 -11.418332,-19.83076 -1.547764,-0.73691 -3.085371,-2.08895 -3.416905,-3.00454 -0.331534,-0.91558 -2.890181,-4.74986 -5.685884,-8.52061 C 23.181401,186.12695 8.7458564,157.44667 9.1144576,145.1624 9.2095447,141.99346 8.8047035,137.84803 8.2148103,135.95034 7.6249172,134.05265 6.6271789,129.28239 5.9976142,125.34976 5.0343538,119.33267 5.1023185,117.46503 6.4264755,113.56481 7.291914,111.01572 8,108.07239 8,107.02407 c 0,-2.39833 1.9635932,-3.70101 3.01482,-2.00009 0.435167,0.70411 1.108655,5.71537 1.496639,11.13612 0.387984,5.42075 1.152985,10.13252 1.700002,10.47059 C 16.701423,128.16957 51,110.87843 51,108.08427 51,107.56696 48.4125,106.1756 45.25,104.99238 34.374417,100.92335 24.089569,94.906999 19.836187,90.125992 12.221873,81.567133 8.0272478,69.152029 8.0075542,55.11602 7.9954399,46.481982 9.8036219,42.121117 15.960902,35.93461 24.97981,26.872894 37.918225,20.117638 50.427691,17.939208 61.105036,16.079829 64.220035,12.030267 60.268777,5.1455963 59.316604,3.4865308 58.904011,1.762563 59.351903,1.3145568 60.373974,0.29222744 83.113992,-0.43919002 86.608468,0.43786762 c 2.167533,0.5440162 2.484824,1.05429328 1.958788,3.15018548 -0.824507,3.2850987 2.144805,8.3015749 5.396941,9.1178089 3.836696,0.962949 13.940113,-1.143353 21.535303,-4.4895576 5.18452,-2.2841365 7.43749,-2.8105605 9.18501,-2.1461522 2.43693,0.9265178 2.63528,0.7042535 2.37536,-2.6618214 -0.1553,-2.0113671 0.42242,-2.1169435 15.04831,-2.75000003 C 150.47357,0.29624885 163.9166,0 171.98156,0 h 14.66358 l 7.63682,8.25 c 18.4382,19.918645 23.61135,28.040888 25.31722,39.75 0.91044,6.249304 7.699,16.715592 19.04203,29.358154 3.7249,4.151644 4.35879,5.487381 4.35879,9.1849 0,5.638587 1.53185,9.521762 4.01204,10.170346 3.10264,0.811359 2.56329,5.36122 -1.04538,8.81854 -1.66834,1.59837 -4.18236,4.94506 -5.58672,7.43709 -1.40436,2.49203 -5.69493,7.45597 -9.5346,11.03097 l -6.98122,6.5 -2.94378,11 c -1.61907,6.05 -3.69621,13.7 -4.61586,17 -1.19475,4.28713 -1.66257,9.85395 -1.63873,19.5 0.0389,15.74116 1.88581,23.12127 7.55149,30.1754 4.86744,6.06027 5.28864,7.68177 2.29143,8.8213 -1.72931,0.65749 -3.81456,3.64344 -7.0672,10.11983 -2.53773,5.05293 -5.78892,10.96248 -7.22486,13.13234 l -2.6108,3.94519 2.28969,1.72711 c 1.53791,1.16005 2.17721,2.52361 1.9471,4.15298 -0.30688,2.17289 -0.96825,2.49274 -6.3426,3.06732 -3.3,0.3528 -35.5324,0.6903 -71.62756,0.75 -51.412851,0.085 -65.841837,-0.16222 -66.616887,-1.14147 z M 77,224.96788 c 0,-0.56766 -0.652038,-2.59266 -1.448973,-4.5 -1.267724,-3.03409 -1.893166,-3.46788 -5,-3.46788 -4.682318,0 -4.616707,1.93543 0.198973,5.86947 3.831007,3.12965 6.25,3.94181 6.25,2.09841 z M 55,149.23519 c 0,-0.97064 0.9,-3.44401 2,-5.49637 2.119635,-3.95478 2.640134,-11.21703 0.984687,-13.73882 -0.875277,-1.33333 -1.092202,-1.33333 -1.952325,0 -2.524206,3.91294 -4.177877,21 -2.032362,21 0.55,0 1,-0.79416 1,-1.76481 z M 82.647408,109.88747 C 88.778483,107.19936 94.788523,105 96.003052,105 c 1.21453,0 3.561046,1.13831 5.214478,2.52959 2.32532,1.95662 3.3159,2.27259 4.37334,1.39499 2.22698,-1.84822 -0.0263,-4.5066 -5.00038,-5.89925 -2.469708,-0.69147 -5.143089,-1.99255 -5.940853,-2.89128 C 91.853105,96.983587 87.972837,85.945596 86.959838,78.259291 86.206047,72.539766 84.82823,68.265516 81.71861,62 79.398375,57.325 77.05,53.5 76.5,53.5 c -0.55,0 -2.475255,5.85 -4.278344,13 -1.803089,7.15 -5.965589,20.908907 -9.25,30.575348 C 59.687245,106.74179 57,114.89421 57,115.19183 c 0,0.29762 3.2625,0.32558 7.25,0.0621 5.850063,-0.38651 9.402507,-1.42275 18.397408,-5.36648 z M 155,16.035184 c 0,-2.284355 -8.93272,-4.54732 -9.67331,-2.450582 -0.2107,0.596531 0.6421,1.578575 1.89511,2.18232 2.86374,1.37985 7.7782,1.549345 7.7782,0.268262 z M 248.01531,253.25 c 0.008,-0.4125 0.45153,-1.425 0.98469,-2.25 0.78387,-1.21296 0.9723,-1.06944 0.98469,0.75 0.008,1.2375 -0.43469,2.25 -0.98469,2.25 -0.55,0 -0.99311,-0.3375 -0.98469,-0.75 z M 249.15789,175 c 0,-1.375 0.22698,-1.9375 0.50439,-1.25 0.27741,0.6875 0.27741,1.8125 0,2.5 -0.27741,0.6875 -0.50439,0.125 -0.50439,-1.25 z M 7.0501733,98.09375 C 5.5621385,95.313331 5.7485485,92 7.3930112,92 8.9112381,92 10,94.09767 10,97.02277 c 0,2.713663 -1.7338006,3.34315 -2.9498267,1.07098 z M 5.3616264,87.5 C 5.0450442,86.675 5.0757023,85.245106 5.4297555,84.322459 6.0198441,82.784712 6.2068218,82.77825 7.6734885,84.244917 9.3227577,85.894186 8.8828642,89 7,89 6.4154767,89 5.6782086,88.325 5.3616264,87.5 Z M 249.07895,83.416667 c 0.048,-1.164943 0.28494,-1.4019 0.60416,-0.604167 0.28887,0.721875 0.25335,1.584375 -0.0789,1.916667 -0.3323,0.332291 -0.56864,-0.258334 -0.52522,-1.3125 z"
       id="path292"
       inkscape:connector-curvature="0" />
    <path
       style="fill:#aeaeae"
       d="M 67.582821,252.75 C 67.387896,252.0625 66.677737,249.475 66.004691,247 63.669176,238.41159 59.077468,229.82726 54.261123,225.04507 49.74694,220.56289 40.503822,207.73616 28.364781,189.10856 21.630135,178.77411 20.149964,175.89346 14.959764,163.02021 11.574144,154.62286 10.802452,151.45964 10.602107,145.15789 10.468205,140.94605 9.8562515,136.15 9.2422103,134.5 8.6281692,132.85 7.715661,128.575 7.2144144,125 c -0.7427874,-5.29772 -0.589835,-7.42483 0.8269218,-11.5 2.0386738,-5.86406 2.5657368,-4.99892 3.4689268,5.69401 0.743366,8.80076 2.136062,10.89301 5.734731,8.61531 C 18.485247,127.02433 21.75,125.55558 24.5,124.54544 36.366797,120.18649 52,110.73908 52,107.92673 52,106.85356 48.996578,105.14592 42.75,102.66751 30.362015,97.752402 23.366665,93.049513 18.247138,86.194529 13.028368,79.206661 10.149836,70.418152 9.3391693,58.997416 8.5812971,48.320456 9.664926,44.701231 15.594071,38.106594 23.595157,29.207462 37.046585,21.882477 49.961641,19.391709 62.319185,17.008463 65.582573,13.316109 62.075212,5.6858351 L 60.151136,1.5 67.825568,1 C 76.066691,0.46307931 90.311213,0.95870942 88.25,1.7106566 c -3.183472,1.1613563 0.675732,10.5502104 5.014644,12.1998614 3.24439,1.233515 13.125796,-0.549746 20.202356,-3.645845 4.0666,-1.779197 7.61361,-2.5991104 10.88239,-2.51553 l 4.84939,0.1239956 -0.61521,-3.2793567 -0.61521,-3.2793567 15.76582,-0.6538813 C 152.40538,0.30090917 165.575,0.0222416 173,0.04128263 l 13.5,0.03462004 2.71779,3.71204863 C 190.71257,5.8295781 196.67529,12.9 202.46828,19.5 c 11.81972,13.466298 14.00331,17.201623 15.91222,27.219939 1.68655,8.851393 6.33286,16.393418 19.3695,31.441185 3.54155,4.087891 4.25246,5.608525 4.26474,9.122256 0.0179,5.129359 1.76644,8.883048 4.75301,10.203748 3.16092,1.397799 2.80633,4.679052 -0.7226,6.686822 -1.61822,0.92067 -4.33157,4.13575 -6.02967,7.14462 -1.6981,3.00887 -6.17068,8.33458 -9.93908,11.83491 -5.37673,4.99426 -7.11443,7.33101 -8.0725,10.85538 -0.67148,2.47013 -2.52486,8.99114 -4.11862,14.49114 -5.12292,17.679 -6.00912,34.76266 -2.49444,48.08619 1.61618,6.12665 3.05573,8.93904 6.75581,13.19861 3.08427,3.55062 3.70033,6.2152 1.437,6.2152 -0.78546,0 -4.06535,5.01115 -7.36334,11.25 -3.27084,6.1875 -6.79598,12.70231 -7.83364,14.47735 -1.8806,3.21697 -1.87943,3.23243 0.36333,4.8067 1.2375,0.86865 2.25,2.60884 2.25,3.8671 0,2.24613 -0.2592,2.2996 -14.25,2.93964 -7.8375,0.35854 -40.02662,0.65354 -71.53138,0.65555 -44.971947,0.003 -57.35755,-0.26496 -57.635799,-1.24634 z m 9.79472,-29.19848 c -0.159072,-4.85933 -2.883788,-7.53814 -8.205851,-8.0676 -4.312247,-0.429 -4.959756,0.29884 -3.545224,3.98505 0.827237,2.15575 9.425777,8.686 10.799609,8.20188 0.590659,-0.20814 1.018818,-2.06184 0.951466,-4.11933 z M 56.112358,149.67227 c 0.396769,-1.48357 1.647692,-4.61088 2.77983,-6.94956 2.098924,-4.3358 2.055557,-9.83336 -0.110878,-14.05567 -0.883249,-1.72143 -1.053594,-1.7306 -2.799319,-0.15074 -1.022361,0.92522 -2.336548,3.90971 -2.920415,6.63218 -1.193051,5.56301 -1.423366,16.1564 -0.374076,17.20569 1.224366,1.22436 2.686334,0.0795 3.424858,-2.6819 z M 67.5,116.01495 c 5.172641,-0.56267 9.563672,-1.96926 16.820568,-5.3882 C 89.72188,108.08204 94.814405,106 95.63729,106 c 0.822884,0 3.036537,1.17491 4.91923,2.6109 3.52134,2.68586 6.02565,2.64153 7.08744,-0.12546 0.84877,-2.21187 -2.31152,-5.30556 -6.79066,-6.64754 -2.101596,-0.62965 -4.458525,-1.863266 -5.237615,-2.741362 C 92.879019,96.012099 89.236099,85.41451 88.042434,77.065256 87.167726,70.946991 85.784205,66.537509 83.00477,61.009486 76.555488,48.182502 75.395962,48.34058 72.07162,62.5 69.379302,73.967429 64.916085,88.569245 59.923037,102.24518 57.765367,108.15503 56,114.17001 56,115.61181 c 0,2.26771 0.303618,2.52316 2.25,1.89301 1.2375,-0.40064 5.4,-1.07108 9.25,-1.48987 z M 99.264432,89.402234 C 100.23758,88.429089 98.901441,86 97.393011,86 96.626855,86 96,86.6 96,87.333333 c 0,2.214828 1.908778,3.424556 3.264432,2.068901 z M 154.41821,18.393011 c 3.97989,-1.527225 -0.17232,-6.282086 -6.19079,-7.089333 -6.97214,-0.93516 -5.81859,4.500365 1.41513,6.668116 1.5716,0.470965 2.93315,0.894979 3.02566,0.942253 0.0925,0.04727 0.88002,-0.187192 1.75,-0.521036 z"
       id="path290"
       inkscape:connector-curvature="0" />
    <path
       style="fill:#919191"
       d="M 67.107743,248.59084 C 65.379411,240.86784 58.824509,227.87157 55.059928,224.70388 51.492283,221.7019 48.588709,217.81923 37.333518,201 21.742853,177.70205 21.468942,177.20654 15.042155,160.67444 12.623862,154.45369 12,151.31912 12,145.38926 c 0,-4.66677 -0.52349,-8.28885 -1.398223,-9.67444 -1.6816073,-2.66371 -3.185499,-19.23603 -1.8220822,-20.07866 0.5263428,-0.3253 1.2230182,2.11569 1.5807992,5.53876 0.35184,3.36622 1.144763,6.72895 1.762052,7.47274 1.30304,1.57007 4.056254,1.77354 5.428599,0.40119 0.52313,-0.52312 4.10063,-2.12828 7.95,-3.567 12.785745,-4.77874 28.919192,-15.1317 28.307424,-18.1651 -0.178718,-0.88616 -3.539524,-2.70673 -7.986389,-4.32627 C 19.984247,93.580331 10.075458,80.277486 10.017364,54.921445 10.001774,48.117258 10.314289,46.868399 13.075866,42.699179 19.349232,33.228125 35.61787,23.592464 50.5,20.533447 59.821778,18.617359 62.224097,17.287409 63.967914,13.077463 64.981697,10.629975 64.991902,9.3946626 64.017767,7.0428932 63.344086,5.4164845 62.877927,3.779296 62.981857,3.4046966 63.085787,3.0300972 62.569886,2.342686 61.83541,1.8771162 61.073854,1.3943807 66.5161,1.0738936 74.5,1.1313141 c 7.7,0.055379 13.265049,0.2963638 12.366776,0.5355224 -3.491345,0.9295448 0.964216,11.3877745 5.787929,13.5856055 3.255051,1.4831 15.826485,-0.952678 23.831415,-4.617456 4.0369,-1.8481566 6.44541,-2.3580786 9.10179,-1.9270072 3.95524,0.6418478 5.78569,-0.8606522 4.82187,-3.9579788 -0.48232,-1.5500043 0.2917,-1.7635214 6.77283,-1.8683148 C 142.24903,2.7997664 143.57714,2.554671 141.5,2.084937 137.362,1.149151 154.45129,0.01181708 172.75,0.00517358 183.9736,0.00109876 187,0.2836768 187,1.3357118 c 0,0.7346415 4.52362,6.4721415 10.05249,12.7500002 16.12626,18.310859 17.70207,20.634691 19.9484,29.417779 1.09951,4.299039 1.99911,8.413177 1.99911,9.14253 0,2.334727 12.26998,19.686619 18.73501,26.494564 2.89654,3.050182 3.57703,4.656855 4.19609,9.90718 0.55963,4.746189 1.28944,6.712401 3.00806,8.104055 1.24804,1.010603 2.67229,1.588314 3.165,1.283803 C 248.59687,98.131112 249,99.060081 249,100.5 c 0,1.43992 -0.37666,2.38524 -0.83703,2.10072 -1.57037,-0.97054 -5.23588,2.55877 -8.30433,7.99577 -1.68509,2.98581 -6.23464,8.32271 -10.11011,11.85978 -6.84809,6.25012 -7.10868,6.66468 -9.26398,14.73738 -1.21972,4.56849 -3.27444,11.90635 -4.56605,16.30635 -2.02414,6.89549 -2.35293,10.20902 -2.3814,24 -0.0384,18.58743 1.29979,24.6129 6.92596,31.18581 3.96498,4.63219 4.12361,5.13324 2.12239,6.70395 -0.778,0.61063 -4.08027,6.06024 -7.33836,12.11024 -3.25809,6.05 -6.78404,12.477 -7.83545,14.28222 l -1.91164,3.28222 2.42729,1.85581 c 1.33501,1.0207 2.49236,2.73905 2.57189,3.81857 0.13608,1.84721 -0.77215,2.00078 -15.42729,2.60864 -8.56454,0.35523 -40.58778,0.64738 -71.16276,0.64921 L 68.31826,254 Z m 11.459309,-22.00197 c 0.891976,-3.55392 -2.846023,-11.38528 -5.744319,-12.03474 -5.630183,-1.26164 -8.250078,-1.06178 -8.602892,0.65629 -0.575159,2.8008 2.603128,8.1044 6.570111,10.96353 4.712376,3.39635 6.998199,3.5183 7.7771,0.41492 z M 57.487435,150.21529 c 0.376215,-2.0054 1.369315,-4.97138 2.206889,-6.59107 1.994131,-3.85623 1.36866,-13.98981 -1.010325,-16.36879 -1.47826,-1.47826 -1.861565,-1.50511 -3.137401,-0.21972 -3.8332,3.86191 -6.060162,23.30787 -3.017659,26.35037 2.232069,2.23207 4.178404,0.98745 4.958496,-3.17079 z M 67.5,117.11468 c 5.421543,-0.49293 9.26922,-1.70509 17.063339,-5.37556 C 90.098175,109.1326 95.208215,107 95.918983,107 c 0.710768,0 2.629292,1.125 4.263387,2.5 3.61357,3.04062 6.37642,3.19293 7.85352,0.43294 1.622,-3.03074 -1.00932,-6.43573 -6.94759,-8.9903 -4.423532,-1.902953 -5.157928,-2.704883 -7.578025,-8.2749 C 92.036386,89.275483 90.18867,82.543654 89.40424,77.708121 88.341468,71.15677 86.825881,66.622224 83.457046,59.914473 76.744031,46.548061 74.615873,46.784678 71.530611,61.240497 69.041066,72.905119 63.711115,90.195017 59.011414,101.85168 53.839767,114.67891 53.665763,120.05349 58.474571,118.43347 59.588557,118.05818 63.65,117.46473 67.5,117.11468 Z M 99.800558,88.837285 c 0.322052,-2.687831 -2.036326,-5.427641 -3.756753,-4.364358 -1.423855,0.879991 -1.318141,4.852737 0.168695,6.339573 1.744724,1.744724 3.241042,0.921005 3.588058,-1.975215 z M 157,17.088894 c 0,-1.051109 -1.41169,-3.098968 -3.1371,-4.550799 -2.48335,-2.089602 -3.99419,-2.5770088 -7.25,-2.338894 -9.05135,0.661975 -3.38191,8.788689 6.1371,8.797061 3.51874,0.0031 4.25,-0.325088 4.25,-1.907368 z"
       id="path288"
       inkscape:connector-curvature="0" />
    <path
       style="fill:#666666"
       d="m 68.928717,253.85148 c -0.03921,-0.19331 -0.288214,-2.1501 -0.553352,-4.34841 C 67.621521,243.25281 59.888427,228.00328 54.387404,221.91905 47.218689,213.99033 40.722586,205.31218 32.899624,193.21351 21.670332,175.84674 19.280583,170.09555 16.987963,154.92033 13.808921,133.87774 14.035299,133.0127 23.235442,131.04735 29.133807,129.78733 33.227657,127.34162 43.671389,118.8387 47.615652,115.62741 51.280007,113 51.8144,113 c 2.744442,0 2.802248,6.42985 0.169932,18.90179 -2.748583,13.02282 -2.650089,20.21269 0.324263,23.67058 2.469397,2.87085 5.1745,2.80168 8.185485,-0.20931 2.282253,-2.28225 2.028906,-21.16012 -0.377461,-28.12606 -2.614423,-7.56823 -1.51866,-8.737 8.191227,-8.737 6.956525,0 8.130895,-0.3353 17.126983,-4.88995 l 9.658345,-4.88995 5.478756,2.772 c 5.28587,2.67441 5.54828,2.70908 7.45342,0.98496 3.70777,-3.35549 1.74553,-9.08668 -3.91367,-11.4308 -3.66157,-1.516671 -4.333624,-3.111144 -2.9655,-7.035734 1.40622,-4.033886 0.62324,-6.693687 -3.548541,-12.054499 C 94.306271,77.726561 84.840462,59.601346 79.994822,48.25 78.762211,45.3625 77.193426,43 76.508631,43 c -1.329072,0 -2.9432,5.159426 -6.907071,22.077879 -3.494289,14.914197 -9.237502,32.189579 -11.773102,35.413071 -1.906968,2.42432 -2.667367,2.68277 -6.738984,2.29051 C 46.161722,102.30672 36.422421,98.35215 28.775439,93.721022 23.566754,90.566564 14.92752,78.812126 12.977846,72.227009 12.37094,70.177154 11.614463,63.673997 11.296787,57.77555 L 10.719194,47.051099 16.95244,41.045821 C 27.985889,30.415897 38.746265,26.065492 54.959785,25.679506 61.731325,25.518299 63.162632,25.840378 69,28.838898 l 6.5,3.338898 5.945964,-3.591784 c 7.207931,-4.354101 18.357301,-8.743643 29.631806,-11.666133 10.52394,-2.727936 20.88807,-2.258282 32.42223,1.469222 8.23368,2.660886 14.92654,3.347795 15.98185,1.640267 0.95547,-1.545981 -1.94397,-6.161951 -6.90164,-10.987576 C 150.06109,6.5897776 148,4.0397776 148,3.3751254 148,2.7104731 147.4375,1.939693 146.75,1.6622807 146.0625,1.3848684 152.025,1.0981657 160,1.0251636 c 7.975,-0.0730021 17.2,-0.18254585 20.5,-0.24343052 3.66711,-0.0676579 5.91923,0.29276112 5.79227,0.92696882 -0.11425,0.5707175 5.23107,7.282235 11.8785,14.9144831 15.82062,18.164471 16.57687,19.383207 18.81919,30.327818 1.03568,5.055085 2.45656,9.882092 3.15751,10.726683 0.70094,0.84459 1.74202,2.32866 2.31349,3.297932 1.58255,2.684163 8.4803,11.480359 13.78904,17.584169 4.16689,4.790948 4.75,6.018602 4.75,10.00046 0,2.49649 0.65698,5.809529 1.45995,7.362309 1.54765,2.992825 5.1265,4.639844 5.91316,2.721286 0.25795,-0.629113 0.50452,-0.104784 0.54794,1.165175 0.0434,1.269963 -0.33295,2.054453 -0.83638,1.743313 -1.55607,-0.9617 -7.05967,4.46482 -9.58747,9.4532 -1.39529,2.75346 -5.40002,7.45201 -9.54163,11.19467 -7.05275,6.37341 -7.16567,6.55521 -9.54948,15.37474 -1.32679,4.90878 -3.37436,12.30006 -4.55017,16.42506 -1.74034,6.10548 -2.15611,10.38201 -2.2361,23 -0.11513,18.16243 1.48075,25.42095 7.00919,31.87969 l 3.38721,3.95719 -2.10502,3.33156 c -1.15776,1.83236 -4.45776,7.60656 -7.33334,12.83156 -2.87558,5.225 -6.09448,10.98872 -7.1531,12.80827 l -1.92476,3.30827 2.90793,2.35522 c 2.82154,2.28526 2.85338,2.40979 1.07165,4.19174 -1.7392,1.7394 -5.47516,1.85508 -70.65794,2.18798 -37.8519,0.19332 -68.853717,0.19332 -68.892923,0 z m 9.499854,-23.42291 c 3.332625,-3.33262 1.447777,-10.04683 -5.054484,-18.00509 -1.831886,-2.24208 -4.459789,-6.62958 -5.839785,-9.75 -3.900324,-8.81933 -4.795585,-7.46908 -4.360448,6.57652 0.42775,13.80719 0.804841,14.76374 7.664702,19.44275 5.495903,3.74868 5.562032,3.7638 7.590015,1.73582 z"
       id="path286"
       inkscape:connector-curvature="0" />
    <path
       style="fill:#565656"
       d="M 73.600796,253.11552 C 71.052958,252.5746 70.501387,251.77284 69.049649,246.5 66.69373,237.94309 60.59219,226.91601 54.330177,219.89804 39.14116,202.8754 23.012762,177.24038 22.987234,170.08052 22.980213,168.11123 21.807104,162.9 20.380326,158.5 18.643901,153.14509 17.738873,148.02023 17.643092,143 L 17.5,135.5 23,134.99898 c 6.39142,-0.58223 10.643536,-2.96304 17,-9.51851 5.933456,-6.11921 9.350246,-7.9683 11.015768,-5.96147 0.964169,1.16175 0.749607,4.45887 -1.032975,15.87344 -1.237456,7.92391 -1.953369,15.58866 -1.59092,17.03277 1.500325,5.97777 8.345625,8.54824 13.377884,5.02351 4.217324,-2.95393 4.42948,-4.61039 2.201017,-17.18489 -3.247203,-18.32294 -3.309608,-18.93639 -2.008208,-19.74069 2.396443,-1.48109 10.029534,2.50409 12.602246,6.57953 3.195922,5.06267 5.647497,5.04473 9.029663,-0.0661 C 86.253429,123.01865 92.803563,119 96.6936,119 c 1.134184,0 3.60331,0.64394 5.48695,1.43097 1.88364,0.78704 3.9008,1.12454 4.48259,0.75 2.12831,-1.37013 4.33686,-7.19349 4.33686,-11.43514 0,-3.67372 -0.55394,-4.89039 -3.5476,-7.79196 -2.74007,-2.655788 -3.41286,-3.975292 -2.95567,-5.796854 C 105.32116,92.872231 103.35701,87.467285 98.988687,81 91.367043,69.716175 85.562871,56.370075 83.415041,45.189994 81.465625,35.042712 82.911751,32.586921 95.233711,25.119683 100.43053,21.970359 116.02062,19.471369 129.5,19.627023 c 9.27752,0.107132 12.62748,0.624186 21.39333,3.301987 5.71633,1.74623 11.00383,2.940693 11.75,2.654362 2.2681,-0.870351 1.53793,-4.567051 -2.23449,-11.312774 -1.97514,-3.531881 -3.27726,-6.7251264 -2.8936,-7.0961002 0.97567,-0.9433965 9.94478,9.2154162 13.97217,15.8255022 4.27284,7.012943 5.06797,10.244973 3.4697,14.103536 -2.16777,5.233477 -5.71344,5.562561 -15.34594,1.424304 -5.4341,-2.334565 -13.46772,-2.151831 -18.511,0.421055 C 138.84508,40.099359 137,41.654238 137,42.404181 c 0,0.749943 2.4592,2.361648 5.46489,3.581567 3.00568,1.219919 7.61818,3.59848 10.25,5.285691 2.63181,1.687211 8.78789,5.12886 13.68018,7.648109 10.84523,5.58467 14.67958,9.801956 15.36116,16.895273 0.58439,6.081887 -0.75463,8.699519 -5.20077,10.166877 -1.92967,0.636848 -3.74244,2.032077 -4.09874,3.154654 -1.30124,4.099846 -14.55895,7.543921 -26.95672,7.002789 -5.82364,-0.254188 -11.60772,1.724996 -17.62759,6.031779 -1.28693,0.92071 -2.59277,0.71073 -6.2391,-1.00325 -9.21296,-4.330604 -10.04939,-1.817984 -2.60732,7.83233 10.01347,12.98471 13.73734,18.57768 14.98078,22.5 0.69744,2.2 2.56114,6.58439 4.14156,9.7431 3.84116,7.67712 5.5492,14.64121 6.35118,25.89524 0.85098,11.94163 1.05336,12.57908 4.57136,14.39831 3.13473,1.62103 3.85503,4.86478 1.89395,8.52909 -1.47717,2.7601 -3.08077,2.41914 -6.14579,-1.30673 l -2.68096,-3.25901 -2.87376,2.75 c -1.64885,1.57785 -3.99742,2.75 -5.51001,2.75 -3.27128,0 -3.3428,0.1312 -4.15917,7.63035 -0.61055,5.60842 -0.45179,6.38655 1.86475,9.1396 2.15933,2.56621 2.44335,3.65693 1.92915,7.40843 -0.46615,3.40095 -0.22641,4.71169 1.05655,5.77645 2.83599,2.35367 12.13265,-1.19588 17.16273,-6.55288 5.15136,-5.48616 8.584,-6.18334 9.36446,-1.90195 0.30078,1.65 0.99245,2.94951 1.53705,2.8878 1.48557,-0.16833 3.45872,-4.5168 3.47544,-7.65924 0.0103,-1.93389 0.7283,-3.09656 2.37591,-3.84726 1.29864,-0.5917 3.07146,-2.56533 3.9396,-4.38584 1.09543,-2.29714 2.50057,-3.51255 4.59188,-3.97188 1.65738,-0.36402 4.04706,-1.4689 5.31039,-2.45527 6.86763,-5.36208 18.00705,-8.48579 21.77157,-6.10516 1.26877,0.80235 1.16408,1.57168 -0.75,5.51144 -2.71772,5.59389 -2.76252,6.52541 -0.31382,6.52541 1.27525,0 2.63535,-1.49673 4.08921,-4.5 3.10604,-6.41622 3.83824,-6.08624 5.54738,2.5 0.90666,4.55481 3.697,10.0091 6.34621,12.40499 1.15853,1.04774 2.10641,2.49421 2.10641,3.21438 0,2.42653 -11.08598,21.63384 -16.81648,29.13583 -4.58323,6.00007 -6.73069,7.9085 -11.09268,9.858 l -5.40916,2.41752 -55.59084,-0.14984 c -30.57496,-0.0824 -56.895482,-0.42683 -58.490044,-0.76536 z m 8.390107,-20.60456 c 1.641202,-1.97753 0.544826,-7.6082 -2.620033,-13.45573 -11.843565,-21.8827 -14.064215,-25.57206 -15.563861,-25.85758 -2.439582,-0.46449 -3.204274,4.95147 -2.522858,17.86822 0.690745,13.09358 1.947969,15.87969 8.987448,19.91685 5.74008,3.29196 9.814582,3.82329 11.719304,1.52824 z m 40.796627,-28.74953 c -0.24489,-7.86843 -0.54707,-9.28822 -2.03753,-9.57333 -1.33931,-0.25619 -1.75,0.34164 -1.75,2.54745 0,1.5852 -0.66069,3.7557 -1.4682,4.82332 -2.06185,2.72601 -1.87724,5.73226 0.54078,8.80627 3.98968,5.07206 5.03285,3.611 4.71495,-6.60371 z m 53.96233,5.6551 c -0.95295,-0.95296 -2.86349,0.5906 -2.1533,1.7397 0.42212,0.683 0.98146,0.66575 1.69964,-0.0524 0.58876,-0.58876 0.79291,-1.34803 0.45366,-1.68727 z M 114,200.5 c 0,-0.825 -0.45,-1.5 -1,-1.5 -0.55,0 -1,0.675 -1,1.5 0,0.825 0.45,1.5 1,1.5 0.55,0 1,-0.675 1,-1.5 z m 86,-9.94098 c 0,-0.24254 -0.45,-0.7191 -1,-1.05902 -0.55,-0.33992 -1,-0.14148 -1,0.44098 0,0.58246 0.45,1.05902 1,1.05902 0.55,0 1,-0.19844 1,-0.44098 z M 151.14466,77.070883 c 3.49544,-1.061014 7.43438,-2.073514 8.75321,-2.25 3.2553,-0.435623 4.90114,-3.153211 3.1717,-5.23706 -1.6411,-1.977404 -4.622,-1.981276 -19.53605,-0.02538 C 131.04654,71.196046 128,72.160997 128,74.47848 c 0,4.640362 11.97791,5.981992 23.14466,2.592403 z M 94.708624,45.316069 c 1.350828,-2.037958 1.245164,-2.288606 -1.58086,-3.75 C 88.915947,39.388054 87,39.577277 87,42.171259 c 0,2.668715 2.863018,6.00509 4.819014,5.615765 0.793114,-0.157863 2.093439,-1.269793 2.88961,-2.470955 z M 206.50645,177.01044 c -1.30132,-2.10558 -0.93191,-9.12952 0.52874,-10.05335 2.07312,-1.31121 2.66272,-1.1867 3.39306,0.71653 1.00816,2.62723 -0.47016,10.32638 -1.98278,10.32638 -0.73009,0 -1.60265,-0.4453 -1.93902,-0.98956 z m -47.28026,-3.189 c 0.54204,-1.62612 3.53037,-3.39821 4.34938,-2.5792 0.36933,0.36933 0.40504,1.36591 0.0794,2.21463 -0.68505,1.78523 -5.02127,2.14218 -4.42873,0.36457 z m 20.21996,-5.90857 c -0.36954,-0.59793 -0.2103,-1.54872 0.35385,-2.11287 1.26163,-1.26163 3.2,-0.19612 3.2,1.75902 0,1.68362 -2.57364,1.93987 -3.55385,0.35385 z m 46.22052,-50.57954 C 224.33957,116.00623 225.04175,114 226.83333,114 c 2.54019,0 3.35667,1.06614 2.03555,2.65799 -1.23051,1.48267 -2.19209,1.68547 -3.20221,0.67534 z m 7.33474,-12.82963 c -0.93801,-2.46715 -0.98919,-2.47717 -4.38436,-0.85813 -1.88939,0.90099 -4.20879,1.34134 -5.15421,0.97854 -1.79154,-0.68747 -1.79499,-0.40772 0.17498,-14.193038 1.10867,-7.758153 -4.24023,-9.298459 -8.31801,-2.395314 -2.91422,4.933367 -4.71801,3.450805 -5.52894,-4.544311 -0.39003,-3.845296 -1.25301,-12.300193 -1.91774,-18.788661 -1.06914,-10.435824 -1.01615,-12.407753 0.45913,-17.087892 C 209.24952,44.705021 210,40.451267 210,38.162108 c 0,-9.306269 4.20394,-2.221468 6.52908,11.003318 0.76298,4.339577 1.6004,8.235053 1.86093,8.656613 0.26054,0.42156 -0.41774,2.757593 -1.50729,5.191186 -2.5441,5.682431 -3.52031,12.474687 -1.93383,13.455185 0.69606,0.430193 3.18994,-0.958821 6.04725,-3.368147 C 223.67061,70.845118 226.32902,69 226.90373,69 c 0.5747,0 1.79068,1.4625 2.70217,3.25 0.9115,1.7875 3.62306,5.368222 6.02568,7.957159 3.94389,4.249707 4.36842,5.191498 4.36842,9.690983 0,2.741103 -0.48646,5.284474 -1.08103,5.651935 -0.61236,0.378463 -0.80414,1.771304 -0.44236,3.212759 0.77356,3.082104 -1.1807,8.237164 -3.12268,8.237164 -0.77189,0 -1.83052,-1.12333 -2.35252,-2.4963 z M 42,98.617523 C 33.181818,94.933224 28.669507,92.376236 26.068423,89.589587 23.489137,86.826291 21.040079,80.906628 21.015056,77.375 21.004166,75.837947 20.201644,75.090329 18.114525,74.672905 14.386841,73.927368 13.225973,70.640446 12.365122,58.393845 l -0.659164,-9.377376 5.210941,-4.727157 C 29.471514,32.900268 38.092978,29 50.71362,29 c 8.351105,0 12.343932,1.355611 17.609107,5.978496 3.126745,2.745319 3.677068,3.849451 3.675906,7.375096 C 71.994153,55.94117 62.05577,92.782322 56.710851,99.024733 54.433738,101.68421 48.978529,101.5332 42,98.617523 Z"
       id="path284"
       inkscape:connector-curvature="0" />
    <path
       style="fill:#4c4c4c"
       d="m 80.238627,253 c -4.543755,-0.275 -8.268566,-0.83278 -8.277357,-1.2395 -0.0088,-0.40673 -0.194492,-1.30673 -0.41267,-2 -0.218179,-0.69328 -0.942302,-3.0605 -1.609163,-5.2605 -0.666861,-2.2 -2.306296,-6.18225 -3.643188,-8.84943 -1.336893,-2.66719 -2.271623,-5.00853 -2.077177,-5.20297 0.194445,-0.19445 3.143475,0.97529 6.5534,2.59943 C 74.182397,234.67116 78.078043,236 79.429464,236 82.289167,236 85,232.65836 85,229.13321 c 0,-3.13469 -14.553679,-31.25347 -18.61921,-35.97369 -2.796814,-3.24719 -3.297951,-3.47316 -4.848551,-2.18628 -1.536507,1.27519 -1.690475,3.23346 -1.38079,17.56179 L 60.5,224.6616 56.074215,219.73835 c -7.200182,-8.00948 -13.418373,-16.0775 -18.021782,-23.38303 -2.375847,-3.77043 -6.126493,-9.51571 -8.334769,-12.76731 -3.359555,-4.9468 -4.14144,-7.06916 -4.789234,-13 C 24.502628,166.68961 23.035952,160.8 21.669151,157.5 c -1.604506,-3.87391 -2.60629,-8.48043 -2.827122,-13 L 18.5,137.5 24.045244,137 c 6.385822,-0.57579 8.026929,-1.5234 17.108074,-9.87857 3.659325,-3.36679 7.146825,-6.12143 7.75,-6.12143 1.528429,0 1.354461,7.71857 -0.416971,18.5 -2.080881,12.66483 -1.95675,14.18344 1.43673,17.57692 3.392382,3.39239 7.422006,3.80222 12.710371,1.29273 5.412677,-2.56848 5.839926,-4.30839 3.491295,-14.21773 -3.181892,-13.42504 -4.317491,-20.03103 -3.633636,-21.13753 1.721844,-2.786 5.887005,-0.20116 12.758893,7.91798 2.804032,3.31297 6.349772,2.65801 9.107748,-1.68237 5.145167,-8.09723 10.706636,-10.46083 16.953092,-7.205 5.04367,2.62891 7.06855,1.86846 9.74464,-3.65961 2.97839,-6.15253 2.31098,-12.06505 -1.90378,-16.86539 -2.4342,-2.772407 -2.97738,-4.141597 -2.53015,-6.377752 C 107.22793,92.110365 104.97598,86.794593 99.994956,79.5 96.098466,73.793686 90.459707,62.301528 88.057503,55.170696 85.491222,47.552805 85.445487,46.188197 87.828741,48.345012 88.834548,49.255256 90.430003,50 91.374195,50 93.518583,50 98,45.624474 98,43.530756 98,41.110476 91.996562,37.863143 88.25,38.256862 85.776634,38.516784 85,38.210109 85,36.973513 c 0,-2.000559 2.810836,-4.61502 10.081433,-9.377108 5.757927,-3.771318 8.286057,-4.332985 28.038177,-6.229148 8.29286,-0.796097 21.28112,1.047964 29.69982,4.216755 C 156.34971,26.912805 160.29371,28 161.58388,28 c 2.99535,0 4.79638,-3.299232 4.02442,-7.372168 L 165.01547,17.5 166.98672,20 c 4.21401,5.344358 7.34701,12.53416 6.65804,15.27926 -1.15262,4.592397 -3.76834,5.103954 -10.86597,2.125053 -8.8867,-3.729786 -16.83331,-3.734482 -23.18235,-0.0137 -7.51216,4.402419 -7.24094,6.722549 1.16436,9.960474 2.34345,0.902751 7.51845,3.611534 11.5,6.01952 3.98156,2.407985 10.1642,5.833544 13.7392,7.612354 10.02497,4.988116 14,9.540408 14,16.033121 0,4.474815 -1.48412,6.630743 -5.05637,7.345192 -1.9958,0.39916 -3.32155,1.367905 -3.66397,2.677312 -1.05929,4.05074 -7.58263,6.157905 -20.29113,6.554428 -9.68724,0.302256 -12.5756,0.776673 -17.21193,2.82708 -3.06419,1.35513 -5.76022,3.030772 -5.99118,3.723646 -0.31299,0.93897 -1.7587,0.68385 -5.67707,-1.001782 -6.5668,-2.824964 -9.50268,-2.550051 -9.90737,0.927712 -0.31506,2.70752 1.32291,5.30862 12.51483,19.87355 3.4187,4.44902 6.69757,9.87824 7.28639,12.06494 0.58881,2.18669 2.61153,7.01692 4.49492,10.73383 4.36813,8.62056 6.46942,17.6304 6.4881,27.81945 0.0152,8.31247 1.01483,10.66033 5.64077,13.24913 1.22711,0.68672 1.47596,1.64711 0.95974,3.7039 l -0.69693,2.77678 -2.73724,-3.27877 c -2.15065,-2.57613 -3.21045,-3.12857 -4.94546,-2.57789 -1.21452,0.38547 -2.67358,1.57038 -3.24235,2.63313 -0.70538,1.31803 -2.09662,1.93228 -4.37649,1.93228 -4.41925,0 -5.21158,1.22224 -6.05509,9.34051 -0.6516,6.27126 -0.52058,7.04293 1.57446,9.27299 1.80793,1.92446 2.29649,3.61936 2.33928,8.1154 0.0479,5.03006 0.34875,5.84897 2.61899,7.12831 3.9763,2.24074 13.09208,-0.96156 18.69951,-6.56899 C 157.45213,211.6005 159,211.0021 159,213.87756 c 0,2.55623 2.4795,4.42242 4.86843,3.6642 2.07669,-0.65912 4.13157,-5.24102 4.13157,-9.21242 0,-1.54709 0.85226,-2.76053 2.45022,-3.48861 1.34763,-0.61402 2.88378,-2.36009 3.41368,-3.88015 0.66852,-1.91774 1.89233,-2.96776 3.99792,-3.43023 1.66896,-0.36657 4.69468,-1.98585 6.72383,-3.59842 2.02915,-1.61256 4.50092,-2.93193 5.49284,-2.93193 0.99191,0 2.08159,-0.45 2.42151,-1 0.99042,-1.60253 2.22489,-1.16002 2.78975,1 0.29833,1.14082 1.36401,2 2.48069,2 1.60364,0 1.93706,0.65388 1.84362,3.6156 -0.0792,2.50964 0.44543,3.96261 1.71501,4.75 1.55094,0.9619 2.34262,0.54651 5.20636,-2.73173 l 3.37729,-3.86612 1.16272,4.61755 c 0.78309,3.10995 2.4923,5.94715 5.23503,8.68988 3.84012,3.84011 4.00648,4.24679 2.91745,7.13195 -3.67681,9.74098 -19.91604,31.99851 -25.68569,35.20488 -1.07677,0.59839 -2.55674,1.63582 -3.28882,2.30538 -1.01559,0.92887 -13.23149,1.16587 -51.54223,1 C 111.09503,253.59783 84.782382,253.275 80.238627,253 Z m 79.573793,-29.26451 c 0.39799,-2.06658 -2.48881,-3.4591 -4.01242,-1.93549 -1.52361,1.52361 -0.13109,4.41041 1.93549,4.01242 0.95785,-0.18446 1.89247,-1.11908 2.07693,-2.07693 z m -35.03045,-18.81343 c 0.25737,-9.63377 0.0996,-10.71922 -1.80854,-12.44611 -2.58731,-2.34148 -5.32189,-1.03258 -5.77937,2.76628 -0.26043,2.16259 -0.78107,2.51947 -3.5,2.39913 -2.7641,-0.12233 -3.23578,0.21977 -3.50399,2.54138 -0.21834,1.88992 0.29883,3.00854 1.75,3.78519 1.13296,0.60634 2.05993,1.95456 2.05993,2.99605 0,2.68114 6.48117,9.28217 8.69688,8.85772 1.57975,-0.30262 1.83805,-1.65286 2.08509,-10.89964 z m 53.17816,7.62598 C 180.04249,210.03895 178.80514,207.5 175.5,207.5 c -2.06626,0 -3.07819,0.54822 -3.31888,1.79804 C 171.78408,211.3597 173.64773,214 175.5,214 c 0.69031,0 1.79737,-0.65338 2.46013,-1.45196 z m 4.79016,-8.29751 c 0.54676,-1.64213 -2.58648,-2.81434 -3.93038,-1.47044 -0.5751,0.5751 -0.7279,1.55977 -0.33954,2.18815 0.88355,1.42961 3.71332,0.95397 4.26992,-0.71771 z m 10.08327,-6.60675 c 0.4847,-2.54157 -1.20414,-3.97833 -3.7329,-3.17573 -2.03557,0.64607 -2.83488,3.4644 -1.39181,4.90747 1.31039,1.31039 4.76733,0.14223 5.12471,-1.73174 z M 97,163.41667 c 0,-0.87084 -0.534375,-1.40521 -1.1875,-1.1875 C 93.958277,162.84724 93.65074,165 95.416667,165 96.2875,165 97,164.2875 97,163.41667 Z m 56,-84.507079 c 4.125,-1.153208 8.50009,-2.489329 9.72241,-2.969158 3.14011,-1.23266 4.00308,-5.478066 1.64611,-8.098058 C 162.68197,65.967614 161.7696,65.826274 155,66.39105 c -12.28708,1.025089 -25.95207,3.32428 -27.52726,4.631575 -2.59197,2.151142 -1.77519,5.822366 1.77726,7.988335 4.37425,2.667033 13.99436,2.625973 23.75,-0.101369 z m 70.6048,23.259979 c -0.28228,-0.45674 0.13582,-3.269241 0.92911,-6.250003 C 226.49547,88.549095 226.36384,85.363837 224,83 c -2.81268,-2.812682 -4.40335,-2.515224 -8.36538,1.56435 l -3.46165,3.56435 -0.58495,-6.81435 c -0.32173,-3.747893 -1.08697,-11.585133 -1.70055,-17.416091 -0.95605,-9.085571 -0.88476,-11.395764 0.49847,-16.153907 C 211.27367,44.69066 212,41.158944 212,39.896093 c 0,-1.609156 0.31533,-1.98076 1.054,-1.242091 0.5797,0.579701 1.55006,5.293067 2.15635,10.474146 1.02231,8.736159 0.94578,9.838614 -1.054,15.183511 -2.35865,6.304059 -2.7221,10.762715 -1.12117,13.754082 1.49758,2.798242 2.59199,2.454801 8.17604,-2.565741 2.7528,-2.475 5.3624,-4.5 5.79911,-4.5 0.43671,0 1.23291,1.2375 1.76934,2.75 0.53643,1.5125 2.76082,4.775 4.9431,7.25 6.16301,6.989702 6.52894,8.084261 4.21686,12.613176 -1.28492,2.516919 -1.77219,4.856057 -1.3825,6.636824 0.36616,1.67327 0.17913,2.75 -0.47767,2.75 C 235.48575,103 235,102.59814 235,102.10699 c 0,-1.75316 -3.32163,-2.126272 -5.60572,-0.62968 -2.56504,1.68068 -4.99875,1.97168 -5.78948,0.69226 z M 38.591642,95.547351 C 26.860546,90.390232 25.02879,88.244367 23.186036,77.5 22.563817,73.872093 22.192999,73.470502 19.199735,73.182893 14.927512,72.772394 14.258586,70.939154 13.834652,58.479499 L 13.5,48.643895 23.875802,40.834216 c 5.706691,-4.295324 12.006691,-8.26269 14,-8.816371 1.993309,-0.55368 7.248343,-1.009201 11.677854,-1.012268 6.674219,-0.0046 8.946653,0.439422 13.267301,2.592492 2.867505,1.428938 5.705329,3.516789 6.306276,4.639667 1.729988,3.232514 0.03625,21.570954 -3.161866,34.234076 -1.578199,6.248978 -4.506129,14.44657 -6.643591,18.60067 L 55.5,98.5 51,98.761976 c -3.354504,0.195289 -6.51311,-0.623009 -12.408358,-3.214625 z"
       id="path282"
       inkscape:connector-curvature="0" />
    <path
       style="fill:#3e3e3e"
       d="M 86.998853,252.20258 C 82.746321,250.14302 70,238.27786 70,236.37887 c 0,-2.46569 2.674311,-1.47414 10.440812,3.87113 4.19544,2.8875 8.625074,5.83711 9.843631,6.55468 3.512028,2.06814 15.138677,0.82692 25.464617,-2.71852 C 120.69263,242.38877 125.42332,241 126.2617,241 c 2.36351,0 2.88517,2.81531 1.14514,6.18016 -0.86846,1.6794 -1.3574,3.9009 -1.08654,4.93665 0.57278,2.19031 0.42062,2.21661 -4.66121,0.80551 -2.1125,-0.58659 -4.5875,-0.77238 -5.5,-0.41287 -0.9125,0.35952 -7.067,0.81524 -13.67666,1.01272 -9.73785,0.29094 -12.675067,0.0406 -15.483577,-1.31959 z m 64.284287,0.87044 c -9.34955,-0.43853 -12.03655,-0.86352 -11.44856,-1.81077 1.27119,-2.04789 17.13415,-12.09647 20.13697,-12.756 1.53666,-0.33751 4.6122,-2.17003 6.83454,-4.07227 3.65588,-3.1293 4.69062,-3.48115 10.86726,-3.69536 5.96464,-0.20685 7.67989,0.1804 13.58389,3.06686 3.71649,1.81698 7.14899,3.06149 7.62779,2.76557 2.36415,-1.46112 15.2995,-17.76844 16.64086,-20.97878 0.84405,-2.02009 1.967,-3.40568 2.49544,-3.07909 2.31803,1.43263 -5.09803,13.75495 -16.2686,27.03146 -11.56919,13.75029 -10.32006,13.07842 -25.33787,13.62841 -7.10317,0.26014 -18.41245,0.21512 -25.13172,-0.10003 z M 135,238 c 0,-0.55 0.45,-1 1,-1 0.55,0 1,0.45 1,1 0,0.55 -0.45,1 -1,1 -0.55,0 -1,-0.45 -1,-1 z M 91.474385,227.1423 C 86.966739,224.40103 82,218.25454 82,215.41745 82,212.78015 86.283004,208 88.646023,208 89.591059,208 90,209.4082 90,212.66245 c 0,3.52165 0.768701,5.86037 3.141674,9.55833 3.615022,5.63352 2.912663,7.70675 -1.667289,4.92152 z M 56.666667,216.33333 C 55.660392,215.32706 55.86664,205 56.893011,205 58.252003,205 59,207.69159 59,212.58179 c 0,4.12634 -0.75103,5.33385 -2.333333,3.75154 z M 77.445781,198.899 C 71.397906,195.10698 67,191.07102 67,189.31291 c 0,-1.71703 -0.179792,-1.73421 12,1.14657 5.775,1.36591 11.7375,2.72988 13.25,3.03105 3.850131,0.76663 3.425767,2.7965 -1.22856,5.87658 -5.138181,3.40029 -7.537929,3.31754 -13.575659,-0.46811 z M 78.5,184.33033 c -6.436335,-2.07239 -8.542529,-2.3715 -10.775681,-1.53027 -1.791045,0.67469 -3.917122,0.71824 -5.993398,0.12277 -1.769744,-0.50756 -4.570688,-0.93535 -6.224319,-0.95065 -3.571509,-0.0331 -8.591024,-3.63029 -14.340065,-10.27684 -4.784323,-5.53122 -5.655759,-8.10942 -4.814798,-14.2449 0.698235,-5.09418 9.166305,-27.24299 11.246021,-29.41473 1.84668,-1.92839 1.837807,-1.02395 -0.09776,9.96429 -2.176506,12.35606 -1.993041,17.18951 0.75,19.75907 3.950407,3.70057 7.475846,4.48699 12.647565,2.82129 6.796197,-2.1889 11.234053,-2.73034 14.602435,-1.78155 3.816356,1.07497 4.321355,3.50593 1.038991,5.00147 -3.603434,1.64184 -3.15257,2.95741 1.437084,4.19328 4.61637,1.24306 16.459047,0.0454 30.128355,-3.04701 4.73244,-1.0706 10.19508,-1.94655 12.13922,-1.94655 1.94413,0 4.53084,-0.80656 5.74824,-1.79235 4.31123,-3.49102 1.02007,-4.05759 -25.5158,-4.39246 C 72.572198,156.46305 72.164867,156.36855 69.464962,149.62083 67.277891,144.1548 62.944916,125.89814 63.587813,124.85792 64.711459,123.03982 66.625067,124.20954 72,130 c 5.027964,5.41667 5.960675,6 9.593589,6 2.213284,0 4.891686,-0.63436 5.952006,-1.40968 1.901583,-1.39047 1.90097,-1.43939 -0.04495,-3.5896 l -1.9728,-2.17992 3.72139,-3.4104 c 4.949571,-4.53594 9.054278,-4.65793 11.289485,-0.3355 2.7911,5.39739 11.06736,14.92116 17.7739,20.45303 3.57612,2.94976 6.7953,5.83769 7.15373,6.41763 1.22804,1.98703 4.55945,1.11676 5.53364,-1.44556 1.37934,-3.62793 3.5893,-3.07773 6.73581,1.67697 2.3939,3.61742 2.76419,5.16877 2.76419,11.58061 0,8.98181 -1.15443,10.23586 -9.44113,10.2558 -3.67477,0.009 -8.4398,1.05742 -14.05886,3.09376 -21.874615,7.92731 -27.608341,9.87223 -29.000005,9.83701 -0.825,-0.0209 -5.1,-1.1971 -9.5,-2.61382 z M 88.191667,160.925 C 88.38875,160.33375 88.9775,159.85 89.5,159.85 c 0.5225,0 1.11125,0.48375 1.308333,1.075 C 91.005417,161.51625 90.416667,162 89.5,162 c -0.916667,0 -1.505417,-0.48375 -1.308333,-1.075 z M 23.817975,158.27363 C 21.066858,155.09435 18.803864,146 20.763863,146 c 0.420124,0 1.996402,2.78872 3.502839,6.19716 2.72428,6.16391 2.480738,9.46186 -0.448727,6.07647 z M 225.36799,97.91007 c 1.00398,-5.019925 4.39953,-11.883627 6.22561,-12.584362 1.98548,-0.7619 4.4064,2.027768 4.4064,5.07757 C 236,92.710486 228.30776,101 226.16679,101 c -1.05004,0 -1.25682,-0.79985 -0.7988,-3.08993 z M 55.44113,83.570696 C 53.523957,82.159033 53.523726,82.096981 55.422357,78.543053 58.310639,73.136661 57.191861,72.680822 44.046823,73.908159 33.659801,74.877983 32.546596,74.809338 28.956114,72.977611 26.824073,71.889925 23.261749,71 21.039838,71 17.720387,71 17,70.65704 17,69.076725 17,64.084688 26.935048,56.74937 36.222585,54.884166 c 4.604536,-0.924723 6.957519,-0.805428 13.909724,0.705219 4.60223,1.00002 10.354704,1.839008 12.783276,1.864417 2.583032,0.02702 4.587249,0.559841 4.829212,1.283834 0.461635,1.381282 -4.436561,21.773424 -5.887873,24.512364 -1.123613,2.120501 -3.790452,2.253804 -6.415794,0.320696 z m 56.02415,-15.52222 c -3.37061,-1.366243 -4.70315,-3.688953 -3.987,-6.949604 0.98486,-4.484037 6.20687,-11.069374 10.0516,-12.675805 C 123.05271,46.115482 132,46.841716 132,49.597579 c 0,0.750374 1.2375,1.660207 2.75,2.021851 5.18948,1.240823 20.1443,7.548279 21.35469,9.006717 2.26305,2.726804 -0.77104,3.670676 -19.31973,6.010149 -19.93038,2.513739 -22.2789,2.644726 -25.31968,1.41218 z M 14,52.06977 c 0,-1.073826 5.559215,-5.839057 15.354038,-13.16113 5.568741,-4.162884 8.027239,-5.324663 13.110305,-6.195355 7.508724,-1.28619 11.454043,-0.05016 14.948652,4.683252 5.760127,7.802038 4.830374,8.5031 -11.968374,9.02452 C 29.969054,46.901407 23.067269,48.103849 18.9474,51.037455 15.980608,53.149997 14,53.563267 14,52.06977 Z M 95,34.246368 c 0,-1.087158 0.907037,-3.129761 2.015637,-4.539118 3.528783,-4.486124 7.688463,-5.212507 29.484363,-5.148706 20.05644,0.05871 26.15326,0.951304 25.25633,3.697609 -0.22343,0.684116 -5.0975,2.531457 -10.83128,4.105202 -9.09084,2.495157 -12.69671,2.925366 -28.17505,3.36151 C 95.567871,36.207017 95,36.15978 95,34.246368 Z"
       id="path280"
       inkscape:connector-curvature="0" />
  </g>
</svg>
