<?xml version="1.0" encoding="UTF-8" standalone="no"?>
<!-- Created with Inkscape (http://www.inkscape.org/) -->

<svg
   xmlns:dc="http://purl.org/dc/elements/1.1/"
   xmlns:cc="http://creativecommons.org/ns#"
   xmlns:rdf="http://www.w3.org/1999/02/22-rdf-syntax-ns#"
   xmlns:svg="http://www.w3.org/2000/svg"
   xmlns="http://www.w3.org/2000/svg"
   xmlns:sodipodi="http://sodipodi.sourceforge.net/DTD/sodipodi-0.dtd"
   xmlns:inkscape="http://www.inkscape.org/namespaces/inkscape"
   version="1.1"
   id="svg64"
   width="320"
   height="240"
   viewBox="0 0 320 240"
   sodipodi:docname="momsleep-edge0.svg"
   inkscape:version="0.92.5 (2060ec1f9f, 2020-04-08)">
  <metadata
     id="metadata70">
    <rdf:RDF>
      <cc:Work
         rdf:about="">
        <dc:format>image/svg+xml</dc:format>
        <dc:type
           rdf:resource="http://purl.org/dc/dcmitype/StillImage" />
        <dc:title></dc:title>
      </cc:Work>
    </rdf:RDF>
  </metadata>
  <defs
     id="defs68" />
  <sodipodi:namedview
     pagecolor="#ffffff"
     bordercolor="#666666"
     borderopacity="1"
     objecttolerance="10"
     gridtolerance="10"
     guidetolerance="10"
     inkscape:pageopacity="0"
     inkscape:pageshadow="2"
     inkscape:window-width="1280"
     inkscape:window-height="743"
     id="namedview66"
     showgrid="false"
     inkscape:zoom="2.1508846"
     inkscape:cx="158.41656"
     inkscape:cy="135.9583"
     inkscape:window-x="0"
     inkscape:window-y="224"
     inkscape:window-maximized="1"
     inkscape:current-layer="svg64" />
  <path
     style="fill:#000000"
     d="m 38.59375,221.2625 c 0,-2.10574 1.84494,-4.2 3.7,-4.2 0.715,0 1.3,0.98601 1.3,2.19113 0,2.07577 -0.0705,2.09471 -1.33917,0.3597 -1.25396,-1.71489 -1.38143,-1.72131 -2.00325,-0.10089 -0.36524,0.9518 -0.41105,2.13994 -0.10181,2.6403 0.30925,0.50037 0.0857,0.90976 -0.49675,0.90976 -0.58246,0 -1.05902,-0.81 -1.05902,-1.8 z m 19.20089,-1.521 c -1.65816,-4.58556 -1.59322,-6.21419 0.17719,-4.44378 1.65179,1.65179 3.14939,7.76478 1.90226,7.76478 -0.48321,0 -1.41896,-1.49445 -2.07945,-3.321 z m 43.91511,1.071 c 0.0822,-1.59419 0.24585,-1.75785 0.56148,-0.56148 0.24502,0.92868 1.20532,1.88898 2.134,2.134 1.19637,0.31563 1.03271,0.47929 -0.56148,0.56148 -1.73204,0.0893 -2.2233,-0.40196 -2.134,-2.134 z m 26.884,1.25 c -0.825,-0.53316 -2.33524,-0.97627 -3.3561,-0.98469 -2.57388,-0.0212 -9.34575,-5.58111 -12.07451,-9.91349 -3.54164,-5.62295 -10.35931,-23.42861 -11.60862,-30.31815 -0.62151,-3.42746 -1.51404,-9.95374 -1.98338,-14.50285 -1.03576,-10.03903 -1.56134,-11.10452 -4.12189,-8.3561 -1.95055,2.09368 -3.8555,2.73403 -3.8555,1.29604 0,-0.42858 0.8759,-1.41055 1.94644,-2.18216 2.54743,-1.83608 1.57804,-3.36173 -1.12345,-1.76812 -1.65518,0.97638 -2.1775,0.97217 -2.53698,-0.0205 -0.24897,-0.6875 -0.89173,-1.25 -1.42836,-1.25 -0.53663,0 -0.69705,0.45084 -0.35649,1.00187 0.34055,0.55103 -0.53011,1.43884 -1.93481,1.9729 -1.4047,0.53407 -3.72415,1.73774 -5.15432,2.67483 -1.43018,0.93708 -4.69545,1.81032 -7.25617,1.94052 -9.31828,0.47381 -32.86268,10.27071 -43.65586,18.16536 -9.89872,7.24039 -16.58156,13.33271 -17.81914,16.24454 -0.5844,1.375 -1.7934,3.4 -2.68667,4.5 -0.89326,1.1 -2.4876,4.025 -3.54298,6.5 -1.05537,2.475 -2.93321,6.3 -4.17299,8.5 l -2.25413,4 -0.012,-3.05 c -0.007,-1.6775 0.40126,-3.4775 0.90642,-4 1.73136,-1.79081 8.98584,-16.61547 7.54609,-15.42059 -1.23556,1.02543 -1.27973,0.73883 -0.31337,-2.03328 1.30042,-3.73038 9.59549,-12.30011 14.20012,-14.67031 3.89056,-2.00264 17.64869,-13.27528 17.64869,-14.46034 0,-0.47601 1.34089,-0.86548 2.97976,-0.86548 1.63887,0 4.67637,-0.63529 6.75,-1.41177 2.07363,-0.77647 5.34524,-1.64835 7.27024,-1.93752 l 3.5,-0.52577 -4,1.96055 c -4.23577,2.07611 -4.10947,2.06467 4.5,-0.40753 3.025,-0.86862 7.525,-2.0312 10,-2.5835 l 4.5,-1.00419 -4.75,0.51614 c -2.6125,0.28387 -4.75,0.27485 -4.75,-0.0201 0,-0.2949 3.41832,-1.52942 7.59627,-2.74338 5.28269,-1.53495 8.05883,-2.91314 9.11501,-4.52508 1.43321,-2.18731 4.10702,-3.4509 2.78872,-1.31785 -1.32581,2.1452 3.63519,0.85973 5.65729,-1.46589 1.17924,-1.35624 2.59579,-2.18671 3.1479,-1.84549 0.59192,0.36583 0.69025,0.11302 0.23962,-0.61611 -0.5545,-0.8972 -1.55732,-0.47665 -3.6545,1.53258 -1.58967,1.523 -2.89031,2.23097 -2.89031,1.57327 0,-0.86516 -1.56383,-1.01203 -5.6554,-0.53115 -4.19342,0.49285 -5.46883,0.36282 -4.93372,-0.50301 0.47059,-0.76143 -0.38106,-1.38824 -2.44788,-1.8016 -3.55067,-0.71013 -6.401,-4.53334 -7.41687,-9.9484 -0.3492,-1.86137 -1.52076,-3.84544 -2.61717,-4.43222 -1.09174,-0.58428 -1.69112,-1.53779 -1.33197,-2.11892 0.43084,-0.6971 0.9455,-0.59498 1.5127,0.30018 0.47282,0.74622 0.86657,0.87911 0.875,0.29532 0.0182,-1.2617 -3.71672,-5.43856 -4.86313,-5.43856 -1.62884,0 -3.089,-4.95545 -2.17134,-7.36906 0.55313,-1.45484 0.53486,-2.74586 -0.0471,-3.32779 -0.52294,-0.52295 -1.01299,-2.60508 -1.08901,-4.62698 -0.12879,-3.42588 -0.81564,-4.1975 -3.31414,-3.72316 -0.55,0.10441 -0.4375,-0.3823 0.25,-1.08158 0.6875,-0.69929 1.25,-2.08143 1.25,-3.07143 0,-0.99 0.43588,-1.8 0.96861,-1.8 0.53274,0 0.68127,0.74882 0.33007,1.66404 -0.40189,1.0473 -0.242,1.41896 0.43138,1.00279 0.58847,-0.36369 1.06994,-2.20767 1.06994,-4.09773 0,-4.08871 0.89886,-5.84968 2.5191,-4.93524 0.64949,0.36657 -0.3941,-1.0049 -2.3191,-3.04771 -2.69231,-2.85707 -3.57792,-3.3361 -3.83765,-2.07577 -0.18571,0.90114 0.47258,2.61745 1.46288,3.81402 l 1.80053,2.1756 -2.08243,-2 c -1.14533,-1.1 -2.53752,-3.8 -3.09374,-6 -0.55622,-2.2 -1.33238,-4.9 -1.72478,-6 -0.58976,-1.653193 -0.51348,-1.739895 0.4399,-0.5 0.9067,1.179187 1.02994,0.644499 0.57623,-2.5 -0.31743,-2.2 -0.16831,-6.025 0.33139,-8.5 l 0.90854,-4.5 0.10956,4.190983 c 0.0603,2.305041 0.61597,4.503957 1.23491,4.886481 0.77831,0.481024 0.99829,-0.392804 0.71333,-2.833663 -0.30494,-2.612059 0.0523,-3.819115 1.37466,-4.644955 0.98267,-0.613686 1.78667,-2.038538 1.78667,-3.166337 0,-1.28549 0.42719,-1.786523 1.14499,-1.342901 0.79035,0.488466 0.98817,-0.112708 0.63867,-1.940983 -0.30406,-1.590539 -0.05859,-2.648625 0.61445,-2.648625 0.61643,0 1.68285,-0.9 2.36981,-2 0.68696,-1.1 0.96711,-2 0.62256,-2 -1.37818,0 -7.96549,6.436235 -9.09539,8.886786 -1.17909,2.557246 -1.20586,2.563617 -1.25,0.297473 -0.0682,-3.503278 1.53937,-5.802289 6.39185,-9.14088 2.42383,-1.667638 5.45458,-4.792919 6.73501,-6.945069 3.0244,-5.083455 10.93465,-15.491156 12.14032,-15.97331 0.51575,-0.20625 1.78147,-1.21875 2.81272,-2.25 2.26806,-2.268065 3.00941,-2.388837 2.23228,-0.363659 -0.415,1.081445 -0.12162,1.335459 1.03138,0.893011 2.10474,-0.807664 2.04766,-2.712303 -0.13866,-4.626812 -0.9625,-0.842839 -6.025,-3.695806 -11.25,-6.339925 C 63.04461,13.161703 41.97218,0.483831 40.98015,-1.121314 c -1.35133,-2.18649 8.99524,2.246881 17.1136,7.33296 9.14032,5.726328 28.27653,15.850854 29.95945,15.850854 0.91222,0 1.38047,0.45 1.04055,1 -0.33992,0.55 0.0835,1 0.94098,1 3.44016,0 1.08115,-1.89143 -8.69098,-6.968314 -5.6375,-2.928833 -12.34083,-6.721622 -14.8963,-8.428419 -6.88642,-4.59945 -23.21615,-18.982449 -22.00868,-19.38494 0.84879,-0.28293 13.33108,8.560288 15.15498,10.73671 2.75631,3.289056 14.41251,10.290205 30.40386,18.261704 l 5.90387,2.943005 4.3134,-4.329873 c 2.37238,-2.38143 4.32814,-4.667373 4.34614,-5.079873 0.0678,-1.554587 -4.62377,-0.636427 -8.72243,1.707 l -4.25517,2.432909 1.75517,-2.368651 c 0.98314,-1.326779 3.73452,-2.910327 6.25516,-3.600126 5.74724,-1.572795 6.46681,-2.170831 9.65068,-8.020642 1.44938,-2.662998 3.02222,-4.602647 3.4952,-4.310333 0.47297,0.292315 4.02759,-2.308387 7.89915,-5.779338 6.90012,-6.186137 10.01142,-8.329206 8.46894,-5.833417 -0.55507,0.898118 -0.1841,1.052678 1.35451,0.564341 1.74582,-0.554101 2.00214,-0.352856 1.45566,1.142866 -0.63335,1.733496 -0.57312,1.736445 1.33504,0.06539 2.18681,-1.915088 9.34082,-2.425678 9.34082,-0.666666 0,0.595833 0.5625,0.877083 1.25,0.625 0.6875,-0.252084 1.1375,-0.964584 1,-1.583334 -0.15638,-0.703703 1.43519,-1.125 4.25,-1.125 3.33333,0 4.5,0.388889 4.5,1.5 0,1.949167 2.89041,1.949167 3.63837,0 0.62118,-1.618759 3.36163,-2.093041 3.36163,-0.581787 0,0.505017 0.30147,1.703837 0.66994,2.664045 0.45121,1.175834 0.29471,1.513929 -0.47933,1.035543 -1.22948,-0.759857 -5.21162,0.964258 -6.4253,2.781903 -0.45326,0.678819 -0.74055,0.429945 -0.75,-0.649704 -0.008,-0.9625 -0.69031,-1.75 -1.51531,-1.75 -0.825,0 -1.5,0.476558 -1.5,1.059017 0,0.58246 0.51953,0.737931 1.15451,0.345492 0.6991,-0.432068 0.8837,-0.275345 0.46797,0.397309 -0.37759,0.610959 -1.40852,0.83378 -2.29095,0.495159 -1.10241,-0.423032 -1.4444,-0.174693 -1.09298,0.793674 0.2813,0.775142 1.00151,1.302247 1.60046,1.171345 0.59896,-0.130902 0.84492,0.398101 0.54658,1.175562 -0.31857,0.83017 0.56588,2.139766 2.14303,3.173149 2.40373,1.574988 2.51379,1.885117 1.04903,2.956172 -2.09557,1.532321 -0.22285,2.293188 3.68293,1.496333 l 2.76057,-0.563211 -4.49208,-2.830123 -4.49208,-2.830123 2.9088,-2.447595 c 1.75955,-1.480559 4.3036,-2.500031 6.43908,-2.580312 4.19379,-0.15766 5.1691,-2.454709 2.13999,-5.040092 -1.99013,-1.698602 -1.9734,-1.722297 0.97514,-1.381483 1.65,0.19072 3.79558,0.682176 4.76796,1.092126 0.97238,0.40995 3.15144,0.172308 4.84236,-0.528094 2.5616,-1.061048 3.22579,-1.038344 3.98204,0.136119 0.7596,1.179669 1.05036,1.188283 1.78264,0.05281 0.61023,-0.946216 1.08198,-1.021865 1.55902,-0.25 0.37621,0.60872 1.13401,1.106763 1.68401,1.106763 0.55,0 0.76824,-0.375 0.48498,-0.833333 -0.28327,-0.458333 0.92767,-0.833333 2.69098,-0.833333 1.7633,0 2.64351,0.1875 1.95601,0.416666 -1.88959,0.629865 -1.4993,1.951545 0.75,2.539749 1.29986,0.339922 2,0.03068 2,-0.883368 0,-0.77351 0.48032,-1.406381 1.06739,-1.406381 0.63328,0 0.79306,0.864337 0.39286,2.12523 -0.45124,1.421747 -0.31085,1.900469 0.42413,1.446226 0.60426,-0.373452 3.68997,0.114191 6.85714,1.083652 4.74356,1.451991 6.94816,2.973297 12.50848,8.631602 3.7125,3.77792 6.78163,6.4964233 6.82029,6.0411183 0.0386,-0.455306 0.41103,0.04232 0.82751,1.105833 0.41647,1.063513 3.42234,3.313513 6.67971,4.9999997 6.88652,3.565458 8.12655,6.40369 3.98376,9.118151 -1.4087,0.923014 -2.55438,2.188953 -2.54596,2.813198 0.01,0.724747 0.28087,0.77354 0.75,0.13499 1.08426,-1.475809 4.23469,-1.776427 4.23469,-0.404079 0,1.397744 2.9713,3.826874 4.73654,3.872276 1.35278,0.03479 8.35971,7.26889 7.68965,7.93895 -0.22766,0.227659 -1.42919,-0.433876 -2.67006,-1.470078 -1.24087,-1.036201 -1.69363,-1.243442 -1.00613,-0.460535 2.26895,2.583823 1.2993,3.418408 -1.22088,1.050818 l -2.47089,-2.321275 0.42639,2.214043 c 0.23451,1.217723 1.83632,4.505488 3.55958,7.306144 1.72326,2.800655 3.376,6.588263 3.67275,8.416907 0.6571,4.049276 2.94785,6.393919 3.87821,3.969453 0.65268,-1.700856 4.40484,-2.278159 4.40484,-0.677724 0,0.514196 -0.40334,1.99576 -0.89631,3.292366 -0.6197,1.62995 -0.45947,3.115891 0.51922,4.815099 0.77854,1.351699 1.32201,1.782635 1.2077,0.957635 -0.1143,-0.825 0.14368,-6.312945 0.5733,-12.195434 0.77631,-10.629662 0.76444,-10.717292 -1.93009,-14.25 -1.49116,-1.955007 -2.34491,-3.554562 -1.89723,-3.554562 1.42439,0 6.41945,5.312079 6.52309,6.937091 0.13416,2.103463 1.70096,-2.904802 1.70096,-5.437091 0,-1.575145 -0.14437,-1.483142 -0.67961,0.433105 l -0.67962,2.433105 -3.4707,-3.275044 c -1.91691,-1.808845 -2.68726,-3.024091 -1.72071,-2.71449 0.98812,0.31651 1.75,0.05178 1.75,-0.608061 0,-1.712013 1.70916,0.32931 2.28693,2.731385 0.32539,1.35277 0.51861,0.996108 0.59707,-1.102117 0.2499,-6.682866 7.18777,-13.213073 17.05317,-16.051152 3.05956,-0.880172 7.29394,-2.47465 9.40974,-3.543283 4.11285,-2.0772917 5.04295,-1.9829707 4.12162,0.417974 -0.74228,1.934341 -4.41361,3.594393 -9.75106,4.409101 -2.31961,0.354064 -5.34247,1.273481 -6.71747,2.043148 l -2.5,1.399396 2.5,-0.573067 c 2.24599,-0.514842 2.19519,-0.404234 -0.5,1.088626 -7.49078,4.149123 -9.52806,7.924955 -10.74334,19.911374 -1.32572,13.075563 -1.95557,21.262932 -2.11557,27.5 -0.0776,3.025 -0.70359,6.094643 -1.39109,6.821429 -0.6875,0.726785 -1.24311,1.851785 -1.23469,2.5 0.009,0.710887 0.44048,0.583337 1.08675,-0.321429 0.86067,-1.204936 0.97436,-1.057132 0.57795,0.75138 -0.27142,1.238259 -0.12008,2.020598 0.33631,1.738532 0.45639,-0.282066 1.12274,-1.846582 1.48078,-3.476701 0.35803,-1.63012 1.18015,-2.86246 1.82693,-2.738533 0.68338,0.130939 1.17597,-0.992935 1.17597,-2.683045 0,-1.599601 0.52709,-3.087798 1.17131,-3.307104 0.73881,-0.251505 0.97807,0.34025 0.64796,1.602593 -0.52299,1.999913 -0.52063,1.999922 3.32868,0.01261 3.21291,-1.658752 5.26238,-1.916902 12.35205,-1.555859 9.04085,0.460407 12.35254,1.276697 11.40428,2.811013 -0.32133,0.519923 1.50457,3.178424 4.05757,5.907781 2.55299,2.729357 5.64914,7.094312 6.88033,9.699903 4.18114,8.84859 10.03474,17.15091 12.94115,18.35479 1.81188,0.7505 2.62345,1.68318 2.26882,2.60735 -0.30368,0.79137 -0.55215,1.61294 -0.55215,1.82569 0,0.21276 -0.5625,0.16991 -1.25,-0.0952 -0.94376,-0.36395 -1.16555,1.16567 -0.90528,6.24355 0.45451,8.86759 -0.94295,13.08197 -6.32156,19.06428 -5.61784,6.24839 -9.76692,8.39658 -13.62189,7.05273 -1.5459,-0.5389 -3.6186,-0.77011 -4.606,-0.51378 -1.29444,0.33602 -1.09784,0.50932 0.70473,0.62118 2.34279,0.14539 2.28841,0.24701 -0.86481,1.616 -1.85065,0.80347 -4.10065,1.46915 -5,1.47927 -0.89935,0.0101 -2.98519,2.14109 -4.63519,4.73547 -2.33803,3.6762 -3.64029,4.76477 -5.90175,4.93334 -4.85348,0.36176 -5.14221,1.68723 -1.69721,7.79142 l 3.16738,5.6123 -2.78421,-1.73771 -2.78421,-1.7377 2.89181,3.14497 c 1.59049,1.72973 3.39049,3.05373 4,2.94223 0.6095,-0.1115 0.98376,0.55084 0.83167,1.47186 -0.15209,0.92103 0.25494,2.00306 0.90451,2.40451 0.79094,0.48883 0.91382,0.29756 0.37201,-0.5791 -0.53934,-0.87268 -0.41874,-1.06781 0.3618,-0.58541 0.64395,0.39798 0.91003,1.14558 0.59128,1.66133 -0.71733,1.16067 2.25062,5.51501 9.35901,13.73081 5.17828,5.98499 14.86175,22.85277 13.75481,23.9597 -0.76316,0.76316 -3.5669,-1.80465 -3.5669,-3.26675 0,-3.86579 -5.52244,-12.85404 -12.01656,-19.55799 -2.89925,-2.99295 -7.68423,-9.15421 -10.63329,-13.69171 -2.94907,-4.5375 -6.03429,-8.25 -6.85604,-8.25 -0.82176,0 -1.49411,-0.6199 -1.49411,-1.37756 0,-0.75765 -0.66112,-1.92623 -1.46915,-2.59684 -1.17842,-0.978 -1.93634,-0.8518 -3.82995,0.63771 -1.29844,1.02135 -2.17482,2.41493 -1.94751,3.09685 0.53404,1.60213 -0.63774,1.52091 -3.75339,-0.26016 -1.375,-0.78602 -3.85,-1.44785 -5.5,-1.47073 -1.65,-0.0229 -4.28894,-0.71382 -5.86431,-1.53543 -1.57537,-0.82161 -3.20947,-1.49384 -3.63134,-1.49384 -1.518,0 -7.04261,6.45792 -6.57254,7.68289 0.26446,0.68918 -0.019,1.562 -0.62999,1.93959 -0.71945,0.44465 -0.82579,0.22532 -0.30182,-0.62248 0.55142,-0.89222 0.41971,-1.06841 -0.41367,-0.55336 -0.67247,0.41561 -0.97215,1.40852 -0.66596,2.20645 0.3062,0.79793 0.12913,1.18652 -0.39348,0.86353 -0.52261,-0.32299 -1.86987,1.21544 -2.99391,3.41873 -1.51427,2.96821 -1.67465,3.86438 -0.61909,3.45932 1.0503,-0.40304 0.79519,0.98414 -0.9709,5.27933 -1.31753,3.2043 -2.4062,6.3885 -2.41925,7.076 -0.0131,0.6875 -0.50406,1.25 -1.09113,1.25 -1.13071,0 -0.68644,-2.0729 1.68718,-7.87212 2.16743,-5.29546 1.61043,-5.0663 -2.11979,0.87212 -3.95823,6.30141 -4.75437,5.39837 -1.01205,-1.14793 2.77085,-4.84693 3.12569,-6.32324 1.26205,-5.25076 -0.6875,0.39564 -0.90838,0.34308 -0.49085,-0.1168 0.41753,-0.45987 -0.22341,-1.88202 -1.42432,-3.16032 l -2.18346,-2.32419 2.42432,-0.0153 c 1.79264,-0.0113 2.06065,-0.24559 1.02859,-0.89908 -0.76764,-0.48607 -1.11926,-1.60418 -0.78138,-2.48469 0.69035,-1.79903 -1.83997,-2.19227 -4.2586,-0.66182 -1.18984,0.7529 -1.21168,1.17839 -0.12755,2.48468 1.09202,1.31581 1.06033,1.57622 -0.19186,1.57622 -0.825,0 -2.1176,-0.74471 -2.87245,-1.6549 -2.24711,-2.70959 -7.61997,-4.55059 -9.82954,-3.36806 -2.27124,1.21553 -3.0853,1.29151 -2.92448,0.27296 0.33732,-2.13633 -0.27637,-3.12662 -1.61842,-2.61163 -0.825,0.31659 -1.5,1.2809 -1.5,2.14293 0,1.22751 -0.52599,1.07319 -2.42597,-0.71175 -3.07214,-2.88614 -4.57403,-1.97353 -4.57403,2.77936 0,4.97445 -2.63322,14.85647 -5.05251,18.96116 -1.07301,1.82055 -1.44178,2.99541 -0.81948,2.61081 0.68763,-0.42498 0.94981,-0.15436 0.66839,0.68991 -0.25469,0.76406 -0.9687,1.3892 -1.58669,1.3892 -1.52599,0 -4.09138,3.6448 -3.55296,5.04789 0.23885,0.62243 -0.34759,1.76628 -1.3032,2.5419 -1.5122,1.22738 -1.62873,1.21573 -0.8988,-0.0898 0.58628,-1.04861 0.51508,-1.19907 -0.23662,-0.5 -0.5914,0.55 -1.21992,1.64664 -1.3967,2.43698 -0.17679,0.79034 -1.24348,2.36534 -2.37044,3.5 -1.79271,1.80497 -1.80462,1.8754 -0.0952,0.56302 1.88554,-1.44758 1.90171,-1.41264 0.46282,1 -4.17006,6.99207 -4.98708,8.01392 -5.93775,7.42637 -0.62672,-0.38734 -0.11914,-1.65689 1.29393,-3.23634 1.27887,-1.42944 -0.56398,-0.032 -4.0952,3.10549 -4.91766,4.36929 -7.14122,5.69532 -9.5,5.66534 l -3.07959,-0.0391 3.25,-1.41259 c 1.7875,-0.77692 3.25,-1.68586 3.25,-2.01987 0,-0.33401 -0.53453,-0.27694 -1.18785,0.12684 -0.65331,0.40377 0.35919,-1.25717 2.25,-3.69099 1.89082,-2.43381 3.75933,-4.56977 4.15225,-4.74658 1.66191,-0.74782 15.95021,-21.39121 17.88003,-25.83262 2.1457,-4.93827 5.33277,-20.25205 4.40739,-21.17742 -0.28034,-0.28034 -1.694,0.57956 -3.14148,1.9109 -2.24256,2.06262 -2.47751,2.12317 -1.58868,0.40942 0.5737,-1.10615 1.98477,-2.8634 3.13572,-3.90499 1.15094,-1.04159 2.09262,-2.23817 2.09262,-2.65908 0,-0.4209 2.50063,-4.39543 5.55695,-8.83229 10.68251,-15.50782 15.29568,-28.41701 17.90078,-50.09248 l 0.66103,-5.5 -2.38974,4.5 -2.38973,4.5 -5.72185,0.07 c -3.14702,0.0385 -5.95445,-0.30632 -6.23874,-0.76632 -0.2843,-0.45999 -0.9358,-0.57745 -1.4478,-0.26101 -0.51199,0.31643 -0.9309,0.12673 -0.9309,-0.42154 0,-0.54828 -0.7875,-1.01133 -1.75,-1.02899 -0.9625,-0.0177 -3.325,-0.30252 -5.25,-0.63301 -2.61604,-0.44912 -3.12116,-0.33429 -2,0.45466 1.21182,0.85275 0.98867,1.05849 -1.16152,1.07086 -2.63479,0.0152 -3.10272,1.20176 -1.49126,3.78162 0.43504,0.69647 1.26019,0.97632 1.83368,0.62189 0.98195,-0.60688 2.77023,1.21841 2.80379,2.8618 0.0677,3.31788 -12.20747,-4.91861 -13.79372,-9.25539 -1.34989,-3.69059 -0.33291,-9.26306 1.55809,-8.53741 0.82744,0.31752 2.0099,0.18159 2.62769,-0.30206 2.21685,-1.73552 7.27223,-2.43062 16.12325,-2.21691 8.17851,0.19748 9.25101,0.45548 11.75,2.82663 2.9998,2.84635 3.62543,4.78505 1.25,3.87351 -1.91894,-0.73636 -1.94426,0.74804 -0.0397,2.32867 1.20155,0.9972 1.82101,0.62024 3.49626,-2.12756 2.53754,-4.16215 2.56856,-6.0543 0.13537,-8.2563 -1.63075,-1.47581 -3.64842,-1.68002 -13.88168,-1.40499 l -11.97358,0.32181 0.8875,-2.5 c 0.79297,-2.233677 0.74199,-2.313574 -0.47856,-0.75 -0.75134,0.9625 -1.57897,1.75 -1.83917,1.75 -0.2602,0 -0.47494,-0.7875 -0.4772,-1.75 -0.005,-2.278402 2.52555,-4.168665 5.67078,-4.235357 1.375,-0.02916 6.24377,-0.318445 10.81948,-0.642867 7.61927,-0.540211 8.51517,-0.40602 10.6445,1.594389 2.92467,2.747584 3.9392,1.440112 3.84276,-4.952378 -0.05,-3.317118 -0.92367,-5.917123 -3.18784,-9.487347 -1.71541,-2.704861 -3.11892,-5.50486 -3.11892,-6.222181 0,-0.71732 -0.48032,-1.304219 -1.06739,-1.304219 -0.65033,0 -0.79035,0.879131 -0.35837,2.25 0.5592,1.77456 -0.13754,1.404773 -3.2973,-1.75 -2.20348,-2.2 -4.9249,-5.511978 -6.0476,-7.359951 -1.96936,-3.241559 -2.08065,-3.286397 -3.15845,-1.272505 -0.91625,1.712018 -0.85301,1.986077 0.35162,1.523819 1.23949,-0.475638 1.29076,-0.09198 0.3284,2.457593 -1.11095,2.943238 -2.57209,3.590946 -3.91285,1.734518 -0.36406,-0.50409 -0.23897,-2.029 0.27798,-3.388689 0.51696,-1.359689 0.70233,-2.709752 0.41194,-3.00014 -0.29039,-0.290388 -0.52798,0.0036 -0.52798,0.653387 0,2.422343 -6.34966,5.144492 -12,5.144492 -5.59136,0 -12,-2.715562 -12,-5.084814 0,-0.616928 -0.675,-0.862666 -1.5,-0.546084 -0.91371,0.350624 -1.5,0.0016 -1.5,-0.893011 0,-0.807738 -0.3375,-1.461724 -0.75,-1.453302 -1.95042,0.03982 -3.23005,1.992676 -5.23241,7.985191 -1.23784,3.704532 -3.5362,7.951025 -5.34467,9.874927 -2.40945,2.563228 -2.65013,3.10612 -1.00025,2.256203 1.19496,-0.615575 3.30869,-2.570795 4.69716,-4.344934 3.48558,-4.453746 4.28369,-2.964351 1.05449,1.967842 -2.34259,3.578009 -3.28591,4.154756 -8.46059,5.172812 -6.59339,1.29717 -9.87676,0.748074 -15.09391,-2.524237 -3.85669,-2.419003 -6.42736,-7.584426 -5.02322,-10.093498 0.66752,-1.192782 1.11761,-1.013181 2.41213,0.962508 1.9248,2.937609 7.48786,5.727873 11.41989,5.727873 5.34872,0 8.34283,-3.414504 10.34463,-11.797073 l 0.78736,-3.297072 -4.37397,0.655918 c -3.89163,0.583585 -4.80575,0.313947 -8.28935,-2.445115 -3.17348,-2.513441 -4.12518,-2.848225 -5.02265,-1.766836 -0.60901,0.733808 -0.88619,1.630292 -0.61596,1.992187 0.27022,0.361895 0.21046,0.452127 -0.13282,0.200516 -0.34328,-0.251612 -1.45331,0.535888 -2.46673,1.75 -2.46757,2.956219 -2.42067,1.234604 0.0613,-2.251033 1.08376,-1.521987 1.64626,-3.166453 1.25,-3.65437 -0.39625,-0.487917 -0.31185,-0.553526 0.18754,-0.145798 0.4994,0.407728 1.48689,0.260881 2.19443,-0.326328 0.95255,-0.790541 1.75509,-0.509196 3.09201,1.083962 1.94934,2.322936 6.01287,4.954497 4.92002,3.18622 -0.3448,-0.557897 -0.28661,-1.204039 0.12932,-1.435873 0.41593,-0.231833 0.30386,-0.326652 -0.24903,-0.210709 -1.426,0.299035 -3.03713,-1.726021 -3.0142,-3.788596 0.0107,-0.9625 -0.38023,-1.711565 -0.86874,-1.66459 -0.4885,0.04698 -1.31026,-0.515524 -1.82613,-1.25 -0.74426,-1.059665 -0.84478,-1.025679 -0.4868,0.16459 0.24812,0.825 1.06988,1.355357 1.82613,1.178571 1.07635,-0.251615 1.11271,-0.05448 0.16738,0.907619 -0.95507,0.972018 -1.51993,0.969849 -2.70103,-0.01037 -1.23971,-1.028872 -2.2237,-0.530341 -5.79238,2.934674 -2.36443,2.295751 -3.69157,3.853257 -2.9492,3.461124 1.04403,-0.551474 1.13127,-0.289241 0.38513,1.157708 -0.53056,1.028872 -0.7767,2.391939 -0.54699,3.029036 0.22972,0.637098 -0.0364,1.439009 -0.59145,1.782025 -0.55501,0.343016 -0.72729,1.358075 -0.38285,2.255686 0.40592,1.057802 0.23201,1.388358 -0.49426,0.939494 -0.64959,-0.401464 -0.92342,-2.232099 -0.65154,-4.355649 l 0.469,-3.663123 -2.60572,2.441604 c -2.3556,2.207245 -5.43107,7.888282 -5.43107,10.03234 0,0.46557 0.675,0.58747 1.5,0.270887 1.92786,-0.73979 1.89577,0.104723 -0.12096,3.182638 -0.89153,1.360644 -2.22178,4.157311 -2.95611,6.214817 -1.12118,3.141425 -1.34463,3.340286 -1.39435,1.240919 -0.0454,-1.91644 -0.27365,-2.161009 -0.97791,-1.047746 -0.50529,0.79874 -0.69684,1.81124 -0.42567,2.25 0.27117,0.43876 0.0514,0.797746 -0.48843,0.797746 -2.81528,0 -4.71381,21.76448 -2.79138,32 0.80519,4.28706 0.76619,4.40536 -0.82422,2.5 -1.63997,-1.96473 -1.66016,-1.95591 -1.14493,0.5 0.50023,2.3844 0.45742,2.41024 -0.92578,0.55887 -1.37902,-1.84578 -2.05475,-1.02837 -1.51963,1.83828 0.0921,0.49343 -0.9796,0.14556 -2.38158,-0.77305 -2.47739,-1.62325 -2.54905,-1.60553 -2.54905,0.63034 0,3.76115 2.63438,6.6486 5.7583,6.31148 2.66755,-0.28786 2.84208,0.0163 6.45309,11.24506 3.09318,9.61856 3.82462,13.5789 4.39117,23.77589 0.37389,6.72923 0.35872,13.06255 -0.0337,14.07404 -0.65358,1.68466 -0.8214,1.63882 -1.99866,-0.54601 -0.8097,-1.50269 -1.54004,-1.97272 -1.97405,-1.27048 -0.49994,0.80892 -1.23941,0.77741 -2.69621,-0.1149 -1.76883,-1.08343 -2.34472,-0.81875 -4.84693,2.22762 -5.13519,6.25196 -4.55932,14.82601 2.08499,31.04286 1.69008,4.125 3.92346,8.89994 4.96307,10.61098 2.58175,4.24915 8.80845,8.36413 16.75514,11.07281 6.47162,2.20589 6.54013,2.26485 2.64379,2.27508 -2.2,0.006 -4.675,-0.42571 -5.5,-0.95887 z m 44,-11.70821 c 0,-0.75088 -0.89783,0.043 -5.04179,4.45821 l -4.45821,4.75 4.75,-4.45821 c 2.6125,-2.45201 4.75,-4.58951 4.75,-4.75 z M 14.15666,189.8125 l 2.93709,-3.25 -3.25,2.93709 c -1.7875,1.6154 -3.25,3.0779 -3.25,3.25 0,0.77256 0.82513,0.0924 3.56291,-2.93709 z m 14.51933,-11.38655 c 0.87731,-1.08027 0.17886,-0.83879 -1.83224,0.63346 -1.7875,1.30856 -3.25,2.53541 -3.25,2.72633 0,0.75941 3.75054,-1.72001 5.08224,-3.35979 z m 4.04531,-3.11345 c 1.24388,-1.58606 1.20851,-1.62143 -0.37755,-0.37756 -0.9625,0.75485 -1.75,1.54235 -1.75,1.75 0,0.82304 0.82119,0.29331 2.12755,-1.37244 z m 70.55556,-2.4375 c -0.31922,-0.79773 -0.55618,-0.56078 -0.60416,0.60417 -0.0434,1.05416 0.19292,1.64479 0.52522,1.3125 0.33229,-0.3323 0.36781,-1.1948 0.0789,-1.91667 z m 126.81689,-0.8125 c 0.35191,-0.5694 -0.50929,-1 -2,-1 -1.49071,0 -2.35191,0.4306 -2,1 0.33992,0.55 1.23992,1 2,1 0.76008,0 1.66008,-0.45 2,-1 z m -179.5,-6 c 0.825,-0.53316 1.05,-0.96937 0.5,-0.96937 -0.55,0 -1.675,0.43621 -2.5,0.96937 -0.825,0.53316 -1.05,0.96937 -0.5,0.96937 0.55,0 1.675,-0.43621 2.5,-0.96937 z m 149,-1 c 0,-0.55 -0.4132,-1 -0.91821,-1 -0.50502,0 -1.74252,-0.26174 -2.75,-0.58164 -1.67622,-0.53223 -1.66694,-0.44731 0.10934,1 2.22292,1.81125 3.55887,2.02958 3.55887,0.58164 z m 65.93299,-6.09745 1.97968,-4.09745 -2.69632,0.67674 c -1.48297,0.3722 -2.98207,1.13909 -3.33133,1.70421 -0.43276,0.70021 -0.84036,0.69523 -1.27971,-0.0157 -0.67293,-1.08882 -3.46483,-1.2885 -7.44356,-0.53236 -1.92133,0.36514 -2.12238,0.70449 -1.12756,1.90317 0.85168,1.02621 0.87785,1.4588 0.0883,1.4588 -0.61734,0 -1.12244,0.42011 -1.12244,0.93358 0,1.00219 3.24403,1.67605 9.22666,1.91659 3.42809,0.13783 3.88527,-0.17845 5.70633,-3.94762 z m -11.56596,0.31259 c 0.35499,-0.57437 0.0801,-1.29982 -0.6108,-1.6121 -0.69093,-0.31227 -0.38823,-0.46321 0.67266,-0.33541 2.11132,0.25435 2.44201,1.94207 0.50691,2.5871 -0.6678,0.2226 -0.92375,-0.0652 -0.56877,-0.63959 z m 14.92965,1.3828 c -0.98817,-1.32113 -1.98142,-2.22389 -2.20722,-2.00613 -0.41142,0.39679 2.87565,4.40819 3.61221,4.40819 0.21544,0 -0.41681,-1.08093 -1.40499,-2.40206 z m -47.29668,-4.59794 c 0,-2.36938 -1.53356,-2.6579 -2.38156,-0.44806 -0.34149,0.88992 -0.17385,1.29132 0.39301,0.94098 0.5437,-0.33602 0.98855,-0.1344 0.98855,0.44806 0,0.58246 0.225,1.05902 0.5,1.05902 0.275,0 0.5,-0.9 0.5,-2 z m 27,0.62244 c 0,-0.20765 -0.6853,-0.9463 -1.52289,-1.64144 -1.27335,-1.05678 -1.41968,-0.99492 -0.89301,0.37756 0.53789,1.40173 2.4159,2.38422 2.4159,1.26388 z M 97.35929,152.68182 c -0.95395,-0.72439 -1.44145,-1.61008 -1.08333,-1.9682 0.35812,-0.35811 0.20112,-0.65112 -0.34888,-0.65112 -1.76903,0 -2.34722,1.27834 -1.20221,2.65799 0.61257,0.73811 1.84617,1.3277 2.74133,1.31021 1.45168,-0.0284 1.44013,-0.17413 -0.10691,-1.34888 z m 160.23446,0.38068 c 0,-0.55 -0.45,-1 -1,-1 -0.55,0 -1,0.45 -1,1 0,0.55 0.45,1 1,1 0.55,0 1,-0.45 1,-1 z m -152.5,-1 c -0.33992,-0.55 -1.06803,-1 -1.61803,-1 -0.55,0 -0.72189,0.45 -0.38197,1 0.33992,0.55 1.06803,1 1.61803,1 0.55,0 0.72189,-0.45 0.38197,-1 z m 129.18311,-4.1875 c -0.31922,-0.79773 -0.55618,-0.56078 -0.60416,0.60417 -0.0434,1.05416 0.19292,1.64479 0.52522,1.3125 0.33229,-0.3323 0.36781,-1.1948 0.0789,-1.91667 z m 31.31689,0.28329 c 0,-1.50193 -2.79821,-2.04386 -3.87208,-0.74992 -0.75299,0.9073 -0.38122,1.27971 1.42688,1.42936 1.34486,0.1113 2.4452,-0.19445 2.4452,-0.67944 z m 3.5,-1.09579 c 0.99549,-1.1 1.58498,-2 1.30998,-2 -0.275,0 -1.31449,0.9 -2.30998,2 -0.99549,1.1 -1.58498,2 -1.30998,2 0.275,0 1.31449,-0.9 2.30998,-2 z m -169.38696,0.17971 c 1.15104,-0.48503 1.38598,-1.25255 0.82029,-2.67971 -0.43602,-1.1 -0.83128,-1.55 -0.87836,-1 -0.0471,0.55 -0.52181,0.325 -1.05497,-0.5 -0.64625,-1 -0.97448,-1.08333 -0.98469,-0.25 -0.008,0.6875 -0.69031,1.25 -1.51531,1.25 -0.825,0 -1.5,0.47656 -1.5,1.05902 0,0.58246 0.52647,0.73364 1.16994,0.33595 0.78665,-0.48618 0.96074,-0.1779 0.53138,0.94099 -0.67018,1.74646 0.55212,2.04875 3.41172,0.84375 z m 117.38696,-0.17971 c 0.33992,-0.55 0.14148,-1 -0.44098,-1 -0.58246,0 -1.05902,0.45 -1.05902,1 0,0.55 0.19844,1 0.44098,1 0.24254,0 0.7191,-0.45 1.05902,-1 z m 51.04112,-2.06653 c 1.17263,-1.89735 -0.53762,-2.36554 -2.27922,-0.62395 -1.55894,1.55895 -1.56168,1.69048 -0.0352,1.69048 0.9104,0 1.95188,-0.47994 2.31442,-1.06653 z m -45.20235,-4.19434 c -0.39456,-0.63842 -1.19333,-0.30552 -2.062,0.85938 -0.77986,1.04582 -1.86962,1.77784 -2.42168,1.62671 -0.55206,-0.15112 -0.72183,0.18137 -0.37727,0.73889 0.39643,0.64144 1.52218,0.42677 3.06574,-0.58461 1.3416,-0.87905 2.14944,-2.06722 1.79521,-2.64037 z m 10.66123,3.26087 c 0,-0.55 -0.45,-1 -1,-1 -0.55,0 -1,0.45 -1,1 0,0.55 0.45,1 1,1 0.55,0 1,-0.45 1,-1 z m 1.66228,-2.25 c -0.27741,-0.6875 -0.50439,-0.125 -0.50439,1.25 0,1.375 0.22698,1.9375 0.50439,1.25 0.27741,-0.6875 0.27741,-1.8125 0,-2.5 z m 36.92936,-1.3718 c -0.31763,-0.82773 -1.01372,-1.23537 -1.54687,-0.90587 -0.6078,0.37564 -0.51807,1.58953 0.24057,3.25458 0.9563,2.09885 1.28055,2.28874 1.54686,0.90587 0.18532,-0.96228 0.0771,-2.42684 -0.24056,-3.25458 z m -187.30153,0.62042 c 0.28785,-1.10076 0.11534,-1.7492 -0.38337,-1.44098 -0.49871,0.30822 -0.90674,1.20884 -0.90674,2.00138 0,2.06975 0.6795,1.77459 1.29011,-0.5604 z m 201.95989,0.3391 c -0.6875,-0.27741 -1.8125,-0.27741 -2.5,0 -0.6875,0.27741 -0.125,0.50439 1.25,0.50439 1.375,0 1.9375,-0.22698 1.25,-0.50439 z M 77.95538,138.5625 c -0.31659,-0.825 -1.03256,-1.5 -1.59106,-1.5 -0.58531,0 -0.48812,0.63541 0.22943,1.5 0.68469,0.825 1.40067,1.5 1.59106,1.5 0.19039,0 0.0871,-0.675 -0.22943,-1.5 z m 157.43248,-2.14378 c -0.29142,-1.37482 -0.54288,-1.12336 -0.96961,0.9696 -0.37205,1.82482 -0.23268,2.48236 0.39346,1.85622 0.53328,-0.53328 0.79255,-1.8049 0.57615,-2.82582 z m 59.63229,0.57337 c 2.51548,-1.18241 4.5736,-2.55029 4.5736,-3.03972 0,-0.48943 0.85759,-0.88987 1.90576,-0.88987 1.16116,0 3.14657,-1.85589 5.08151,-4.75 2.84032,-4.2483 3.13388,-5.3589 2.77935,-10.51489 -0.60466,-8.79368 -2.14158,-9.13807 -4.79291,-1.074 -2.566,7.80454 -6.7639,15.5866 -7.99686,14.82458 -0.45807,-0.2831 -1.10174,0.33246 -1.43038,1.36791 -0.67737,2.13419 -4.54647,5.96493 -4.54647,4.50139 0,-0.52525 0.54,-1.49499 1.2,-2.15499 2.59333,-2.59333 -0.64511,-1.01637 -4.04741,1.97088 l -3.61144,3.17089 3.15582,-0.63116 c 1.7357,-0.34714 5.21394,-1.5986 7.72943,-2.78102 z M 72.71784,136.79583 c -0.98762,-0.98026 -1.10248,-0.8654 -0.5598,0.5598 0.37553,0.98622 0.93469,1.54122 1.24258,1.23333 0.30789,-0.30789 6.4e-4,-1.11479 -0.68278,-1.79313 z m 18.64736,-3.66132 c 0.1493,-2.7101 -0.1882,-5.21154 -0.75,-5.55875 -0.5618,-0.34721 -1.06997,0.18276 -1.12927,1.17772 -0.41682,6.99339 -0.26562,9.30903 0.60782,9.30878 0.55,-1.6e-4 1.12215,-2.21765 1.27145,-4.92775 z m 132.97713,3.18226 c 0.19634,-0.58904 -0.11161,-1.3606 -0.68434,-1.71457 -0.6473,-0.40005 -0.79217,0.006 -0.38285,1.07241 0.42773,1.11464 0.27272,1.47756 -0.44235,1.03562 -0.60547,-0.37419 -1.35908,-0.26252 -1.6747,0.24817 -0.31563,0.51069 0.19138,0.81622 1.12669,0.67894 0.9353,-0.13727 1.8612,-0.73153 2.05755,-1.32057 z m 8.85559,-0.98344 c -1.01652,-1.01651 -1.85525,0.51389 -1.02122,1.86338 0.63003,1.01942 0.86558,1.02021 1.2043,0.004 0.2316,-0.69479 0.14921,-1.53513 -0.18308,-1.86742 z m 52.79282,0.89584 c 0.28327,-0.45834 -0.14017,-0.83334 -0.94098,-0.83334 -0.8008,0 -1.45601,0.375 -1.45601,0.83334 0,0.45833 0.42344,0.83333 0.94098,0.83333 0.51754,0 1.17275,-0.375 1.45601,-0.83333 z M 75.59375,135.0625 c 0,-0.55 0.49188,-0.8875 1.09306,-0.75 2.30424,0.52702 5.29695,-7.41317 5.02542,-13.33333 -0.20055,-4.37272 -3.11848,-3.25262 -3.11848,1.19708 0,2.11195 -1.10336,5.85556 -2.5,8.48227 -2.84172,5.34454 -2.85822,5.40398 -1.5,5.40398 0.55,0 1,-0.45 1,-1 z m 183.34508,-0.54313 c -0.32569,-0.84872 -0.80663,-1.32866 -1.06875,-1.06653 -0.26213,0.26213 -0.17998,0.95654 0.18255,1.54313 0.98605,1.59546 1.56238,1.28551 0.8862,-0.4766 z M 71.27686,132.875 c -0.31922,-0.79773 -0.55618,-0.56078 -0.60416,0.60417 -0.0434,1.05416 0.19293,1.64479 0.52522,1.3125 0.33229,-0.3323 0.36782,-1.1948 0.0789,-1.91667 z m 15.97917,-3.0625 c -0.27741,-0.6875 -0.50439,-0.125 -0.50439,1.25 0,1.375 0.22698,1.9375 0.50439,1.25 0.27741,-0.6875 0.27741,-1.8125 0,-2.5 z m -14.3172,0.70687 c -0.32569,-0.84872 -0.80663,-1.32866 -1.06875,-1.06653 -0.26213,0.26213 -0.17998,0.95654 0.18255,1.54313 0.98605,1.59546 1.56238,1.28551 0.8862,-0.4766 z m 216.37781,-4.70687 c 6.3379,-8.39579 9.19666,-14.41519 8.33633,-17.55297 -0.40671,-1.48337 -0.4016,-3.90397 0.0114,-5.37911 0.53116,-1.89738 0.18997,-3.65282 -1.16617,-6 -1.05436,-1.82486 -2.42654,-4.30873 -3.04928,-5.51973 -2.36611,-4.60118 -13.22118,-7.29668 -19.24636,-4.77919 -1.98483,0.82931 -3.60878,1.94306 -3.60878,2.475 0,0.53194 1.51847,3.34091 3.37437,6.24216 2.69557,4.21385 3.11933,5.51323 2.10656,6.4593 -0.6973,0.65138 -1.59608,0.87387 -1.99729,0.49443 -0.40122,-0.37944 0.16337,1.11011 1.25463,3.31011 1.09126,2.2 2.27225,4.675 2.62443,5.5 0.35217,0.825 0.37962,-0.3 0.061,-2.5 -0.89839,-6.20304 1.43148,-2.95913 2.56677,3.57374 0.51863,2.98444 1.6132,7.22626 2.43236,9.42626 0.81917,2.2 1.50915,5.2375 1.53329,6.75 0.0241,1.5125 0.21482,2.75 0.42374,2.75 0.20892,0 2.16329,-2.3625 4.34304,-5.25 z m -25.72289,2.13197 c 0,-0.55 -0.45,-0.72189 -1,-0.38197 -0.55,0.33992 -1,1.06803 -1,1.61803 0,0.55 0.45,0.72189 1,0.38197 0.55,-0.33992 1,-1.06803 1,-1.61803 z m 4.09201,0.54337 c 0.22439,0.2244 0.40799,-0.67951 0.40799,-2.00867 0,-1.40885 -0.58592,-2.41667 -1.40499,-2.41667 -1.11423,0 -1.06163,-0.3794 0.25416,-1.83333 1.36094,-1.50383 1.39878,-1.83334 0.21054,-1.83334 -0.79673,0 -1.42031,0.2625 -1.38573,0.58334 0.0346,0.32083 -0.023,0.80833 -0.12789,1.08333 -0.10492,0.275 -0.27071,2.14971 -0.36842,4.16603 -0.12366,2.5516 0.15429,3.39021 0.91434,2.75868 0.6006,-0.49905 1.2756,-0.72376 1.5,-0.49937 z m -23.36284,-1.02951 c -0.3323,-0.33229 -1.1948,-0.36781 -1.91667,-0.0789 -0.79773,0.31922 -0.56078,0.55618 0.60417,0.60416 1.05416,0.0434 1.64479,-0.19293 1.3125,-0.52522 z M 88.56312,123.0625 c 0,-1.33333 -0.1077,-1.33333 -0.96937,0 -0.53316,0.825 -0.96937,2.175 -0.96937,3 0,1.33333 0.1077,1.33333 0.96937,0 0.53316,-0.825 0.96937,-2.175 0.96937,-3 z m 186.03063,2 c 0,-0.55 -0.47656,-1 -1.05902,-1 -0.58246,0 -0.7809,0.45 -0.44098,1 0.33992,0.55 0.81648,1 1.05902,1 0.24254,0 0.44098,-0.45 0.44098,-1 z M 64.94309,122.59453 c 0.30982,-0.80739 0.22638,-1.67622 -0.18543,-1.93073 -0.4118,-0.25451 -0.81418,0.40608 -0.89417,1.46798 -0.173,2.29656 0.29836,2.4986 1.0796,0.46275 z M 76.27686,119.875 c -0.31922,-0.79773 -0.55618,-0.56078 -0.60416,0.60417 -0.0434,1.05416 0.19293,1.64479 0.52522,1.3125 0.33229,-0.3323 0.36782,-1.1948 0.0789,-1.91667 z m 148,0 c -0.31922,-0.79773 -0.55618,-0.56078 -0.60416,0.60417 -0.0434,1.05416 0.19292,1.64479 0.52522,1.3125 0.33229,-0.3323 0.36781,-1.1948 0.0789,-1.91667 z M 312.31,113.3125 c -0.22912,-1.5125 -0.41659,-0.275 -0.41659,2.75 0,3.025 0.18747,4.2625 0.41659,2.75 0.22913,-1.5125 0.22913,-3.9875 0,-5.5 z m -219.73156,5 c -0.0121,-1.38406 -0.19784,-1.46182 -0.8882,-0.37188 -0.50849,0.8028 -1.40152,1.0514 -2.13919,0.59549 -0.82447,-0.50955 -1.01735,-0.3798 -0.55279,0.37188 1.10059,1.7808 3.59734,1.36552 3.58018,-0.59549 z m -11.92387,-5.79609 c 1.25917,-1.5577 0.7065,-5.45391 -0.77362,-5.45391 -0.90088,0 -1.25239,1.57568 -1.1712,5.25 0.0638,2.8875 0.33723,4.35 0.60761,3.25 0.27038,-1.1 0.87213,-2.47074 1.33721,-3.04609 z m 179.93918,1.54609 c 0,-0.55 -0.47656,-1 -1.05902,-1 -0.58246,0 -0.7809,0.45 -0.44098,1 0.33992,0.55 0.81648,1 1.05902,1 0.24254,0 0.44098,-0.45 0.44098,-1 z m -15.97994,-6.47583 c -1.46293,-1.76272 -3.02006,-2.00255 -3.02006,-0.46515 0,0.58246 0.45318,0.77893 1.00706,0.43661 0.55389,-0.34231 1.28448,0.10054 1.62354,0.98412 0.33906,0.88358 0.85001,1.37297 1.13544,1.08754 0.28543,-0.28543 -0.0503,-1.20483 -0.74598,-2.04312 z m 4.43723,1.54493 c 0.31644,-0.512 0.11799,-1.21356 -0.44098,-1.55902 -0.55897,-0.34546 -1.01631,0.0734 -1.01631,0.9309 0,1.75653 0.60006,2.01516 1.45729,0.62812 z M 66.59375,108.45485 c 0,-0.82763 -1.94173,-1.29565 -2.38691,-0.57533 -0.28881,0.46731 0.13009,0.84965 0.9309,0.84965 0.8008,0 1.45601,-0.12345 1.45601,-0.27432 z m 242.7582,-3.19545 c 1.2673,1.03792 1.22689,0.74347 -0.19856,-1.4469 -2.01907,-3.10252 -2.80936,-3.56435 -1.85832,-1.08596 0.42936,1.11889 0.25527,1.42717 -0.53138,0.94099 -1.35826,-0.83945 -1.44127,-0.45846 -0.44948,2.06318 0.68863,1.75087 0.73649,1.75214 1.08355,0.0287 0.30637,-1.52142 0.61166,-1.59953 1.95419,-0.5 z m -61.41312,-1.74003 c -0.32569,-0.84872 -0.80663,-1.32866 -1.06875,-1.06653 -0.26213,0.26213 -0.17998,0.95654 0.18255,1.54313 0.98605,1.59546 1.56238,1.28551 0.8862,-0.4766 z M 85.59375,103.09388 c 0,-0.53273 -0.675,-0.70959 -1.5,-0.39301 -0.825,0.31659 -1.5,0.75246 -1.5,0.96862 0,0.21615 0.675,0.39301 1.5,0.39301 0.825,0 1.5,-0.43588 1.5,-0.96862 z m 188.98469,-3.11471 c 0.008,0.77916 0.32,1.11197 0.69241,0.73957 0.80384,-0.80385 -4.57801,-6.65845 -6.11419,-6.65127 -0.5846,0.003 0.28709,1.16382 1.93709,2.58019 1.98755,1.70613 2.36167,2.3717 1.10856,1.97214 -1.62392,-0.51778 -1.70712,-0.38099 -0.58827,0.96714 1.03883,1.25172 1.4701,1.30707 2.12613,0.27289 0.65419,-1.03128 0.82609,-1.00681 0.83827,0.11934 z m -22.17782,-3.44313 c -0.30789,-0.30789 -0.86705,0.24711 -1.24258,1.23333 -0.54268,1.4252 -0.42782,1.54006 0.5598,0.5598 0.68342,-0.67834 0.99067,-1.48524 0.68278,-1.79313 z M 82.08667,97.07395 c 0.35034,-0.56686 -0.0511,-0.7345 -0.94098,-0.39301 -1.73242,0.66479 -2.04939,1.38156 -0.61096,1.38156 0.51754,0 1.21592,-0.44485 1.55194,-0.98855 z M 263.27686,88.875 c -0.31922,-0.79773 -0.55618,-0.56078 -0.60416,0.60417 -0.0434,1.05416 0.19293,1.64479 0.52522,1.3125 0.33229,-0.3323 0.36781,-1.1948 0.0789,-1.91667 z M 59.35768,87.3125 C 59.14719,86.35 58.52611,85.64603 57.9775,85.74812 c -0.56092,0.10438 -0.95044,-1.887891 -0.89001,-4.552218 0.0882,-3.88998 -0.21478,-4.762108 -1.69315,-4.87347 -1.16134,-0.08748 -1.80059,0.55235 -1.80059,1.802217 0,1.065818 0.55182,1.825351 1.22626,1.687851 0.67444,-0.1375 1.34169,0.875 1.48277,2.25 0.23021,2.24373 0.16297,2.29498 -0.65598,0.5 -0.50186,-1.1 -0.94411,-1.394431 -0.98277,-0.654292 -0.09089,1.740181 3.10164,7.154292 4.21865,7.154292 0.47175,0 0.6855,-0.7875 0.475,-1.75 z m 153.73607,-1.25 c -0.33992,-0.55 -1.15398,-0.99311 -1.80902,-0.98469 -0.71561,0.009 -0.59227,0.40223 0.30902,0.98469 1.92112,1.24153 2.2673,1.24153 1.5,0 z m 64.34273,-2.615597 c 4.44011,-0.954994 4.95112,-1.234818 2.37515,-1.300595 -3.7897,-0.09677 -9.60061,2.092422 -10.78776,4.064162 -0.61534,1.02201 -0.37841,0.99824 0.97065,-0.0974 0.98158,-0.79718 4.33046,-1.99696 7.44196,-2.666197 z m 2.56575,-2.884403 c 4.06167,0 7.19982,0.305102 6.97366,0.678004 -0.22615,0.372902 0.55481,0.984597 1.73547,1.359323 1.56647,0.497181 1.79924,0.89603 0.86123,1.475753 -0.81289,0.50239 -0.31031,0.73791 1.36716,0.64068 3.44229,-0.19954 3.34565,-1.134779 -0.47815,-4.627282 -2.38118,-2.174871 -4.52626,-3.022583 -8.94665,-3.535623 -3.19796,-0.371164 -6.25006,-0.405642 -6.78243,-0.07662 -0.53237,0.329023 -1.12731,0.120133 -1.32209,-0.4642 -0.40862,-1.225861 -6.60741,2.71054 -8.132,5.16404 -0.55164,0.887743 -0.71153,2.373557 -0.35533,3.301813 0.56951,1.484112 1.07273,1.349692 4.17096,-1.114079 3.14138,-2.498079 4.32388,-2.801809 10.90817,-2.801809 z m -208.90848,2.5 c -0.33992,-0.55 -1.15398,-0.993109 -1.80902,-0.984687 -0.71561,0.0092 -0.59227,0.402227 0.30902,0.984687 1.92112,1.24153 2.2673,1.24153 1.5,0 z m -6.52006,-1.524166 c -0.69572,-0.838291 -1.52528,-1.263823 -1.84348,-0.945627 -0.3182,0.318196 0.0834,0.99718 0.8925,1.508853 2.11697,1.338814 2.39358,1.174992 0.95098,-0.563226 z m 50.02006,-11.725981 c 0,-1.650515 -1.76069,0.227332 -2.32956,2.484563 -0.55085,2.185766 -0.51987,2.197197 0.8793,0.324454 0.79764,-1.067621 1.45026,-2.331679 1.45026,-2.809017 z m -55.01531,-0.05887 c -0.0125,-1.781234 -0.1966,-1.910459 -0.98469,-0.690983 -1.27319,1.970116 -1.27319,4.286873 0,3.5 0.55,-0.339919 0.99311,-1.603976 0.98469,-2.809017 z m 175.74448,2.70485 c -0.3323,-0.332291 -1.1948,-0.367818 -1.91667,-0.07895 -0.79773,0.319226 -0.56078,0.556183 0.60417,0.604167 1.05416,0.04342 1.64479,-0.192928 1.3125,-0.52522 z m 7.27083,-3.395833 c 0,-0.55 -0.47656,-1 -1.05902,-1 -0.58246,0 -0.7809,0.45 -0.44098,1 0.33992,0.55 0.81648,1 1.05902,1 0.24254,0 0.44098,-0.45 0.44098,-1 z m 13.69299,-4.730968 c -0.25354,-0.972968 -0.47766,-0.419032 -0.49804,1.230968 -0.0204,1.65 0.18706,2.446064 0.46099,1.769032 0.27392,-0.677033 0.29059,-2.027033 0.0371,-3 z M 254.27686,64.875 c -0.31922,-0.797733 -0.55618,-0.560776 -0.60416,0.604167 -0.0434,1.054166 0.19292,1.644791 0.52522,1.3125 0.33229,-0.332292 0.36781,-1.194792 0.0789,-1.916667 z m -40.68311,-0.8125 c 0,-0.55 -0.47656,-1 -1.05902,-1 -0.58246,0 -0.7809,0.45 -0.44098,1 0.33992,0.55 0.81648,1 1.05902,1 0.24254,0 0.44098,-0.45 0.44098,-1 z m 42.68311,-4.1875 c -0.31922,-0.797733 -0.55618,-0.560776 -0.60416,0.604167 -0.0434,1.054166 0.19293,1.644791 0.52522,1.3125 0.33229,-0.332292 0.36781,-1.194792 0.0789,-1.916667 z M 115.59375,53.538845 c 0,-0.720323 0.5625,-1.536652 1.25,-1.814064 0.79958,-0.322637 0.84102,-0.532834 0.11501,-0.583334 -0.62424,-0.04342 -1.86324,1.032504 -2.75332,2.390944 -1.37834,2.103608 -1.3954,2.38434 -0.11501,1.893011 0.82682,-0.317284 1.50332,-1.166235 1.50332,-1.886557 z m 136.38156,0.971717 c 0.34149,-0.889925 0.17385,-1.291322 -0.39301,-0.940983 -0.5437,0.336025 -0.98855,1.034397 -0.98855,1.551938 0,1.438432 0.71677,1.121462 1.38156,-0.610955 z M 192.59375,46.03549 c 0,-0.624512 -1.55312,0.329462 -3.45137,2.119943 -1.89825,1.790481 -3.18803,3.681507 -2.86618,4.202281 0.66456,1.075281 6.31755,-4.581891 6.31755,-6.322224 z M 70.2017,50.3125 c 1.57675,-2.07711 1.79943,-3.619811 0.39743,-2.753323 -1.30144,0.804334 -3.27344,4.503323 -2.40081,4.503323 0.37122,0 1.27274,-0.7875 2.00338,-1.75 z m 114.93127,-0.282549 c 1.90518,-1.581159 1.87471,-4.87138 -0.052,-5.610711 -0.83201,-0.31927 -2.17098,-0.0342 -2.9755,0.633488 -0.80451,0.667689 -3.83628,1.753999 -6.73726,2.414022 l -5.27451,1.200041 3,1.711976 c 3.29608,1.880935 9.57162,1.699112 12.03922,-0.348816 z M 151.59375,48.0625 c -0.825,-0.533156 -2.175,-0.944637 -3,-0.914402 -0.98906,0.03625 -0.81874,0.34772 0.5,0.914402 2.74909,1.181322 4.32797,1.181322 2.5,0 z m 51,-0.333333 c 0,-0.733334 -0.66786,-1.333334 -1.48412,-1.333334 -1.12339,0 -1.21516,0.324085 -0.37756,1.333334 0.60861,0.733333 1.27647,1.333333 1.48412,1.333333 0.20766,0 0.37756,-0.6 0.37756,-1.333333 z m -7.55974,-3.048668 c -0.36139,-1.4399 -1.0192,-2.617999 -1.4618,-2.617999 -0.4426,0 -0.30165,1.332826 0.31324,2.961835 1.33948,3.548697 2.07059,3.32983 1.14856,-0.343836 z m 34.6873,1.632001 c 1.24387,-1.586056 1.2085,-1.621426 -0.37756,-0.377555 -1.66575,1.306369 -2.19548,2.127555 -1.37244,2.127555 0.20765,0 0.99515,-0.7875 1.75,-1.75 z M 73.59375,44.503483 c 0,-0.857459 -0.45,-1.280902 -1,-0.940983 -0.55,0.339919 -1,1.041476 -1,1.559017 0,0.517541 0.45,0.940983 1,0.940983 0.55,0 1,-0.701558 1,-1.559017 z m 105.5,-0.474129 c 3.10308,-1.536565 3.39325,-1.865241 1.2941,-1.465793 -3.50512,0.666989 -7.7941,2.303642 -7.7941,2.974188 0,1.034521 2.56816,0.438551 6.5,-1.508395 z m -54.5,-0.966854 c 0,-0.55 -0.19844,-1 -0.44098,-1 -0.24254,0 -0.7191,0.45 -1.05902,1 -0.33992,0.55 -0.14148,1 0.44098,1 0.58246,0 1.05902,-0.45 1.05902,-1 z M 258.27686,41.875 c -0.31922,-0.797733 -0.55618,-0.560776 -0.60416,0.604167 -0.0434,1.054166 0.19293,1.644791 0.52522,1.3125 0.33229,-0.332292 0.36781,-1.194792 0.0789,-1.916667 z M 77.72131,41.3125 c 1.24387,-1.586056 1.2085,-1.621426 -0.37756,-0.377555 -0.9625,0.754844 -1.75,1.542344 -1.75,1.75 0,0.823034 0.82119,0.293303 2.12756,-1.372445 z m 69.37244,-0.25 c -0.33992,-0.55 -1.15398,-0.993109 -1.80902,-0.984687 -0.71561,0.0092 -0.59227,0.402227 0.30902,0.984687 1.92112,1.241525 2.2673,1.241525 1.5,0 z m 39.5,-0.5 c 0,-0.825 -0.45,-1.5 -1,-1.5 -0.55,0 -1,0.675 -1,1.5 0,0.825 0.45,1.5 1,1.5 0.55,0 1,-0.675 1,-1.5 z m 3.38156,-0.05194 c 0.34149,-0.889925 0.17385,-1.291322 -0.39301,-0.940983 -0.5437,0.336027 -0.98855,1.034399 -0.98855,1.55194 0,1.438432 0.71677,1.121462 1.38156,-0.610955 z m -15.92427,-0.378964 c 0.31644,-0.511996 0.19299,-1.167201 -0.27431,-1.456011 -0.46731,-0.28881 -0.84965,0.130095 -0.84965,0.930902 0,1.686167 0.31534,1.833491 1.12396,0.525109 z m 38.54271,-0.0691 c 0,-0.55 -0.47656,-1 -1.05902,-1 -0.58246,0 -0.7809,0.45 -0.44098,1 0.33992,0.55 0.81648,1 1.05902,1 0.24254,0 0.44098,-0.45 0.44098,-1 z m -131,-5.877228 c 0,-1.11792 -0.43947,-1.035029 -2,0.377228 -1.1,0.995486 -2,2.410826 -2,3.1452 0,0.987891 0.52026,0.889761 2,-0.377228 1.1,-0.94185 2,-2.35719 2,-3.1452 z m 68.95067,2.436669 c 1.36655,-1.646595 4.37001,-0.943366 3.39688,0.795344 -0.4237,0.757036 -0.19885,0.735884 0.66336,-0.0624 1.0722,-0.992699 1.06979,-1.490215 -0.0135,-2.795509 -0.7248,-0.87334 -1.8659,-1.377577 -2.53576,-1.120527 -0.66986,0.25705 -1.61026,0.08282 -2.08978,-0.38717 -1.34789,-1.321107 -4.50411,1.502602 -3.78224,3.383769 0.77253,2.013198 2.77399,2.098789 4.36105,0.186496 z M 148.59375,35.0625 c 0,-0.55 0.47656,-1 1.05902,-1 0.58246,0 0.7809,0.45 0.44098,1 -0.33992,0.55 -0.81648,1 -1.05902,1 -0.24254,0 -0.44098,-0.45 -0.44098,-1 z m 16,2.455778 c 0,-0.115989 -0.6,-0.708844 -1.33333,-1.317457 -0.99637,-0.826907 -1.33334,-0.77361 -1.33334,0.210889 0,0.724601 0.6,1.317457 1.33334,1.317457 0.73333,0 1.33333,-0.0949 1.33333,-0.210889 z m -31.27083,-1.059945 c -0.3323,-0.332291 -1.1948,-0.367818 -1.91667,-0.07895 -0.79773,0.319226 -0.56078,0.556183 0.60417,0.604167 1.05416,0.04342 1.64479,-0.192928 1.3125,-0.52522 z m 7.61591,-3.938961 c -0.32569,-0.848721 -0.80663,-1.32866 -1.06875,-1.066531 -0.26213,0.262128 -0.17998,0.956536 0.18255,1.543128 0.98605,1.595461 1.56238,1.28551 0.8862,-0.476597 z M 86.09375,32.0625 c 0.33992,-0.55 0.16803,-1 -0.38197,-1 -0.55,0 -1.27811,0.45 -1.61803,1 -0.33992,0.55 -0.16803,1 0.38197,1 0.55,0 1.27811,-0.45 1.61803,-1 z m 72.5,-0.893011 c 0,-0.491156 -0.73865,-1.176458 -1.64144,-1.522892 -1.37248,-0.526667 -1.43434,-0.380336 -0.37756,0.893011 1.44013,1.735245 2.019,1.91584 2.019,0.629881 z m -67,-2.106989 c 0,-0.55 -0.45,-1 -1,-1 -0.55,0 -1,0.45 -1,1 0,0.55 0.45,1 1,1 0.55,0 1,-0.45 1,-1 z m 11.72917,-0.604167 c -0.3323,-0.332291 -1.1948,-0.367818 -1.91667,-0.07895 -0.79773,0.319226 -0.56078,0.556183 0.60417,0.604167 1.05416,0.04342 1.64479,-0.192928 1.3125,-0.52522 z m 88.27083,0.211156 c 0,-0.216156 -0.69837,-0.661002 -1.55194,-0.988546 -0.88992,-0.341496 -1.29132,-0.173849 -0.94098,0.393011 0.58726,0.950204 2.49292,1.405448 2.49292,0.595535 z m -37.27083,-3.211156 c -0.3323,-0.332291 -1.1948,-0.367818 -1.91667,-0.07895 -0.79773,0.319226 -0.56078,0.556183 0.60417,0.604167 1.05416,0.04342 1.64479,-0.192928 1.3125,-0.52522 z m 69.14165,-1.051489 c -0.60359,-0.727278 -1.50379,-1.071184 -2.00044,-0.764235 -1.25716,0.776965 -0.27193,2.086558 1.56975,2.086558 1.15369,0 1.25922,-0.324006 0.43069,-1.322323 z m -38.87082,-0.285327 c 0,-1.17986 -1.95035,-2.441996 -2.66667,-1.725684 -0.71631,0.716313 0.54583,2.666667 1.72569,2.666667 0.51754,0 0.94098,-0.423442 0.94098,-0.940983 z M 100.72131,22.3125 c 1.26951,-1.618755 1.22245,-1.639977 -0.62756,-0.282968 -1.1,0.806868 -2.1875,1.594368 -2.41667,1.75 -0.22916,0.155633 0.05323,0.282968 0.62756,0.282968 0.57432,0 1.66182,-0.7875 2.41667,-1.75 z m 66.87244,-0.856989 c 0,-1.953316 -0.74736,-1.733581 -1.98796,0.584484 -0.86343,1.613344 -0.77784,1.869863 0.46482,1.393011 0.83773,-0.321466 1.52314,-1.211339 1.52314,-1.977495 z m 3.29127,-0.712109 c -0.40774,-0.649496 -0.65156,-2.080902 -0.5418,-3.180902 0.11656,-1.168309 -0.0481,-1.433139 -0.39601,-0.636847 -0.50282,1.15087 -0.73006,1.15087 -1.4592,0 -0.63387,-1.000503 -0.86771,-0.764568 -0.87895,0.886847 -0.008,1.2375 0.43469,2.25 0.98469,2.25 0.55,0 0.94671,0.3375 0.88158,0.75 -0.26313,1.66651 0.17256,2.334573 1.13473,1.739919 0.55897,-0.345464 0.6827,-1.159521 0.27496,-1.809017 z m 24.70873,0.350483 c 0,-0.532739 -0.675,-0.709594 -1.5,-0.393011 -0.825,0.316582 -1.5,0.752459 -1.5,0.968615 0,0.216156 0.675,0.393011 1.5,0.393011 0.825,0 1.5,-0.435877 1.5,-0.968615 z m 30.13002,0.07014 c -1.10588,-0.700555 -1.0111,-1.068692 0.49167,-1.909684 2.49377,-1.395585 1.10897,-2.592037 -2.07512,-1.79288 -2.90585,0.729322 -3.41458,3.22756 -0.79657,3.911718 2.96028,0.773602 3.81308,0.698659 2.38002,-0.209154 z m -68.13002,-0.542508 c 0,-0.242541 -0.45,-0.719098 -1,-1.059017 -0.55,-0.339919 -1,-0.141476 -1,0.440983 0,0.582459 0.45,1.059017 1,1.059017 0.55,0 1,-0.198442 1,-0.440983 z m 24.47394,-2.42371 c 0.46316,-2.404999 -0.67571,-2.802046 -2.3277,-0.811513 -0.80146,0.965694 -0.78499,1.63746 0.0609,2.483333 1.38675,1.386758 1.72596,1.136585 2.26681,-1.67182 z m 38.13023,-0.864474 c -1.01652,-1.016515 -1.85525,0.513892 -1.02122,1.863382 0.63003,1.019417 0.86558,1.020206 1.2043,0.004 0.2316,-0.694785 0.14921,-1.535121 -0.18308,-1.867413 z M 106.72131,16.3125 c 1.24387,-1.586056 1.2085,-1.621426 -0.37756,-0.377555 -0.9625,0.754844 -1.75,1.542344 -1.75,1.75 0,0.823034 0.82119,0.293303 2.12756,-1.372445 z m 82.78911,1.467032 c -0.22917,-0.155632 -1.21447,-0.894281 -2.18956,-1.641443 -1.54348,-1.182688 -1.69139,-1.146072 -1.14301,0.282967 0.34643,0.902794 1.33173,1.641444 2.18956,1.641444 0.85782,0 1.37217,-0.127335 1.14301,-0.282968 z m -10,-3.434064 c 0.22916,-0.155633 -0.28519,-0.282968 -1.14301,-0.282968 -0.85783,0 -1.84313,0.73865 -2.18956,1.641444 -0.54838,1.429039 -0.40047,1.465655 1.14301,0.282967 0.97509,-0.747162 1.96039,-1.485811 2.18956,-1.641443 z m -7.68555,-1.507178 c -0.40944,-1.565678 -0.72219,-1.787734 -1.05633,-0.75 -0.26107,0.810816 -0.9697,1.804819 -1.57473,2.208897 -0.63938,0.427015 -0.19701,0.7411 1.05632,0.75 1.73899,0.01235 2.0438,-0.415208 1.57474,-2.208897 z m 3.76888,-0.77579 c 0,-0.55 0.63518,-1 1.41152,-1 0.77633,0 1.31063,-0.687372 1.18732,-1.527494 -0.22523,-1.534624 -0.92788,-1.900519 -2.49166,-1.297506 -1.34174,0.517394 -2.39036,4.825 -1.17457,4.825 0.58707,0 1.06739,-0.45 1.06739,-1 z m -63,-1.377555 c 0,-0.207656 -0.7875,-0.995156 -1.75,-1.75 -1.58606,-1.243871 -1.62143,-1.208501 -0.37756,0.377555 1.30637,1.665748 2.12756,2.195479 2.12756,1.372445 z M 157.7533,9.161107 c -1.87386,-1.158107 0.46614,-3.429754 2.88214,-2.797955 1.23553,0.323097 1.84409,0.220725 1.35236,-0.227493 -0.49173,-0.448218 -2.18847,-1.1209 -3.77053,-1.494848 -2.22612,-0.52618 -2.75576,-0.365294 -2.34252,0.711576 0.29368,0.765314 0.14935,2.013796 -0.32073,2.774404 -0.93393,1.511131 0.82137,3.188696 2.34875,2.244726 0.51013,-0.315277 0.44496,-0.843034 -0.14947,-1.21041 z M 188.59375,4.5625 c 0,-0.825 -0.25714,-1.5 -0.57143,-1.5 -0.31428,0 -1.24643,0.675 -2.07143,1.5 -1.33333,1.333333 -1.26984,1.5 0.57143,1.5 1.1746,0 2.07143,-0.649425 2.07143,-1.5 z m -37.23207,-1.5 c -1.26178,-2.020424 -2.76793,-2.673397 -2.76793,-1.2 0,1.039026 2.1667,3.2 3.20847,3.2 0.44466,0 0.24642,-0.9 -0.44054,-2 z M 122.93883,1.519372 c -0.32569,-0.848721 -0.80663,-1.32866 -1.06875,-1.066531 -0.26213,0.262128 -0.17998,0.956536 0.18255,1.543128 0.98605,1.595461 1.56238,1.28551 0.8862,-0.476597 z M 207.04096,0.97709 c -0.32197,-0.520968 -1.01165,-0.683779 -1.53262,-0.361804 -0.52097,0.321976 -0.68378,1.011657 -0.3618,1.532624 0.32197,0.520968 1.01165,0.683779 1.53262,0.361804 0.52097,-0.321976 0.68378,-1.011657 0.3618,-1.532624 z M 140.3188,-1.9375 c 0.15979,-2.121265 -0.51668,-2.400926 -3.2606,-1.347983 -1.47524,0.566099 -1.38718,0.824974 0.66821,1.964565 1.30204,0.721901 2.38408,1.328493 2.40454,1.347983 0.0204,0.01949 0.10499,-0.864565 0.18785,-1.964565 z m 37.76787,1.011454 c 0.35034,-0.56686 -0.0511,-0.734507 -0.94098,-0.393011 -1.73242,0.664791 -2.04939,1.381557 -0.61096,1.381557 0.51754,0 1.21592,-0.444846 1.55194,-0.988546 z m 4.49177,-0.261454 c 0.008,0.6875 0.80281,1.236316 1.76531,1.219591 1.57975,-0.02745 1.56507,-0.137784 -0.15083,-1.134096 -1.81646,-1.054702 -1.79426,-1.16274 0.5,-2.434156 1.32046,-0.731758 1.93846,-1.346414 1.37334,-1.365904 -1.62567,-0.05606 -5.47407,2.956024 -5.4572,4.271269 0.009,0.720226 0.39961,0.598637 0.98469,-0.306704 0.64625,-1 0.97448,-1.083333 0.98469,-0.25 z m -51.25552,-0.354167 c -0.3323,-0.332291 -1.1948,-0.367818 -1.91667,-0.07895 -0.79773,0.319226 -0.56078,0.556183 0.60417,0.604167 1.05416,0.04342 1.64479,-0.192928 1.3125,-0.52522 z m 45.3464,-3.586017 c 0.56736,-2.121418 0.38263,-2.480894 -1.07851,-2.098797 -1.07032,0.279895 -2.38945,-0.433151 -3.35709,-1.814644 -0.87668,-1.251641 -1.83614,-2.033542 -2.13212,-1.737558 -0.29598,0.295984 0.60048,1.676782 1.99213,3.068439 1.68969,1.689682 2.30621,3.114218 1.85581,4.287965 -0.46922,1.222758 -0.26217,1.620239 0.68034,1.306069 0.74516,-0.248385 1.66291,-1.603549 2.03944,-3.011474 z m -41.50814,-1.91892 c 0.37335,-0.604092 -0.50159,-0.324918 -1.94431,0.620387 -1.44271,0.945305 -2.62312,1.907815 -2.62312,2.138911 0,0.723379 3.85397,-1.604903 4.56743,-2.759298 z m 10.744,0.478301 c -0.30925,-0.805907 0.28166,-2.096284 1.31314,-2.867504 1.77741,-1.328935 1.75784,-1.372592 -0.37457,-0.835325 -1.2375,0.311792 -2.25,1.152606 -2.25,1.868476 0,0.71587 -0.2751,2.018489 -0.61134,2.894709 -0.44,1.146614 -0.17742,1.426617 0.93686,0.999029 0.85657,-0.328697 1.29701,-1.248689 0.98591,-2.059385 z M 189.27686,-6.125 c -0.31922,-0.797733 -0.55618,-0.560776 -0.60416,0.604167 -0.0434,1.054166 0.19292,1.644791 0.52522,1.3125 0.33229,-0.332292 0.36781,-1.194792 0.0789,-1.916667 z m -9.18311,-3.8125 c -0.33992,-0.55 -1.06803,-1 -1.61803,-1 -0.55,0 -0.72189,0.45 -0.38197,1 0.33992,0.55 1.06803,1 1.61803,1 0.55,0 0.72189,-0.45 0.38197,-1 z m -1.5,231 c 0.5887,-1.1 1.23741,-2 1.44156,-2 0.20416,0 0.13585,0.9 -0.15181,2 -0.28766,1.1 -0.93636,2 -1.44157,2 -0.50746,0 -0.43952,-0.89508 0.15182,-2 z m 83,0.61803 c 0,-0.825 0.45,-1.77811 1,-2.11803 0.55,-0.33992 1,0.057 1,0.88197 0,0.825 -0.45,1.77811 -1,2.11803 -0.55,0.33992 -1,-0.057 -1,-0.88197 z m 12,0.50441 c 0,-0.48265 0.675,-1.43775 1.5,-2.12244 1.62821,-1.35129 1.83174,-1.02807 0.89301,1.41821 -0.64255,1.67447 -2.39301,2.18961 -2.39301,0.70423 z m 31.11702,-3.12244 c -1.14671,-2.2 -1.72501,-4 -1.28511,-4 0.43989,0 1.81146,1.8 3.04793,4 1.23647,2.2 1.81477,4 1.28511,4 -0.52966,0 -1.90123,-1.8 -3.04793,-4 z m 5.73978,-0.25179 c -1.45376,-2.33651 -4.9913,-8.90183 -7.8612,-14.58958 -2.86991,-5.68775 -6.51797,-11.49963 -8.1068,-12.9153 -1.58884,-1.41566 -2.87879,-3.06204 -2.86656,-3.65863 0.0122,-0.59658 0.94043,0.0403 2.06268,1.4153 l 2.04045,2.5 -0.67586,-2.5 c -1.13401,-4.19471 -5.67725,-11.97714 -9.5811,-16.41216 -3.94992,-4.48734 -8.45968,-12.3299 -7.59016,-13.19942 0.28886,-0.28886 1.25589,0.51807 2.14895,1.79319 1.83397,2.61856 9.45035,14.34868 11.2642,17.3482 5.49529,9.08745 11.797,20.37747 15.33295,27.47019 2.33063,4.675 5.55021,10.4125 7.15462,12.75 2.52262,3.67526 2.67396,4.24976 1.11907,4.24821 -1.03264,-0.001 -2.92322,-1.8102 -4.44124,-4.25 z m -216.81766,1.12423 c -0.0215,-1.44515 0.63586,-3.18775 1.46086,-3.87244 1.86864,-1.55083 1.87436,-1.0919 0.0391,3.13519 -1.399,3.22234 -1.46252,3.25355 -1.5,0.73725 z m 25.96086,1.06854 c 0,-0.58246 0.45,-0.7809 1,-0.44098 0.55,0.33992 1,0.81648 1,1.05902 0,0.24254 -0.45,0.44098 -1,0.44098 -0.55,0 -1,-0.47656 -1,-1.05902 z m 136.50411,0.0524 c 0.72373,-1.17105 4.49589,-1.34846 4.49589,-0.21149 0,0.43004 -1.14971,0.87705 -2.5549,0.99334 -1.48061,0.12254 -2.29676,-0.20623 -1.94099,-0.78189 z M 14.09375,220.0625 c -0.33992,-0.55 -0.14148,-1 0.44098,-1 0.58246,0 1.05902,0.45 1.05902,1 0,0.55 -0.19844,1 -0.44098,1 -0.24254,0 -0.7191,-0.45 -1.05902,-1 z m 89.5,-0.059 c 0,-0.58246 0.45,-0.7809 1,-0.44098 0.55,0.33992 1,0.81648 1,1.05902 0,0.24254 -0.45,0.44098 -1,0.44098 -0.55,0 -1,-0.47656 -1,-1.05902 z m -41.33333,-1.60767 c -0.36667,-0.36666 -0.66667,-1.13166 -0.66667,-1.7 0,-0.6266 0.46577,-0.56756 1.18333,0.15 0.65084,0.65084 0.95084,1.41584 0.66667,1.7 -0.28417,0.28417 -0.81667,0.21667 -1.18333,-0.15 z M 8.46619,216.3125 c -1.24387,-1.58606 -1.2085,-1.62143 0.37756,-0.37756 1.66575,1.30637 2.19548,2.12756 1.37244,2.12756 -0.20765,0 -0.99515,-0.7875 -1.75,-1.75 z m 255.32251,-2.75 c 0.0204,-1.65 0.2445,-2.20394 0.49804,-1.23097 0.25354,0.97297 0.23687,2.32297 -0.0371,3 -0.27393,0.67703 -0.48137,-0.11903 -0.46099,-1.76903 z M 12.55795,211.89815 c -1.14511,-2.23286 -1.11829,-2.25968 0.60946,-0.60946 0.99401,0.94941 1.53304,2.00045 1.19784,2.33565 -0.3352,0.3352 -1.14849,-0.44159 -1.8073,-1.72619 z m 17.0358,0.60533 c 0,-0.85746 0.40078,-1.31132 0.89062,-1.00858 1.27113,0.7856 4.19792,-4.03809 3.52078,-5.80268 -0.31132,-0.8113 -1.2563,-1.73996 -2.09996,-2.06371 -1.21499,-0.46623 -1.40288,-0.0665 -0.90363,1.92269 0.36422,1.45117 0.20011,2.5113 -0.38876,2.5113 -0.56048,0 -1.0252,-0.3375 -1.03271,-0.75 -0.008,-0.4125 -0.28499,-1.7625 -0.61663,-3 -0.52703,-1.96662 -0.22586,-2.25 2.39121,-2.25 4.44549,0 5.8018,2.16562 3.83079,6.11661 -0.87544,1.75487 -1.59171,3.79653 -1.59171,4.53703 0,0.7405 -0.9,1.34636 -2,1.34636 -1.14476,0 -2,-0.66667 -2,-1.55902 z m 224.27236,-2.44098 c 0,-2.475 0.19502,-3.4875 0.43337,-2.25 0.23836,1.2375 0.23836,3.2625 0,4.5 -0.23835,1.2375 -0.43337,0.225 -0.43337,-2.25 z m -200.76528,2.01145 c -0.35034,-0.56686 0.0511,-0.7345 0.94098,-0.39301 1.73242,0.66479 2.04939,1.38156 0.61096,1.38156 -0.51754,0 -1.21592,-0.44485 -1.55194,-0.98855 z m -27.76817,-3.4116 c -1.656,-1.2568 -1.65947,-1.419 -0.058,-2.7182 1.25166,-1.01544 1.49683,-1.03873 0.925,-0.0879 -0.42793,0.7116 -0.23421,1.9491 0.43049,2.75 1.49003,1.79539 1.02107,1.81564 -1.29745,0.056 z m 31.76109,-1.59985 c -0.33992,-0.55 -0.16803,-1 0.38197,-1 0.55,0 1.27811,0.45 1.61803,1 0.33992,0.55 0.16803,1 -0.38197,1 -0.55,0 -1.27811,-0.45 -1.61803,-1 z m 209.5,0.11803 c 0,-0.55 0.45,-1.27811 1,-1.61803 0.55,-0.33992 1,-0.16803 1,0.38197 0,0.55 -0.45,1.27811 -1,1.61803 -0.55,0.33992 -1,0.16803 -1,-0.38197 z m -36.43571,-1.8249 c -0.54268,-1.4252 -0.42782,-1.54006 0.5598,-0.5598 0.68342,0.67834 0.99067,1.48524 0.68278,1.79313 -0.30789,0.30789 -0.86705,-0.24711 -1.24258,-1.23333 z m 15.43571,-0.29313 c 0,-1.1 0.35357,-2 0.78571,-2 0.43215,0 0.78572,0.9 0.78572,2 0,1.1 -0.35357,2 -0.78572,2 -0.43214,0 -0.78571,-0.9 -0.78571,-2 z m 20.97169,-4.16761 c 1.07995,-2.84219 2.46986,-5.65469 3.08869,-6.25 0.61883,-0.59532 0.36923,0.71761 -0.55466,2.91761 -0.9239,2.2 -2.0795,5.0125 -2.56801,6.25 -0.48852,1.2375 -1.12251,2.25 -1.40888,2.25 -0.28637,0 0.36291,-2.32543 1.44286,-5.16761 z M 10.1772,203.41937 c -0.83718,-2.18165 0.27438,-3.1957 1.45561,-1.32791 1.18254,1.86986 1.20772,2.97104 0.0679,2.97104 -0.49116,0 -1.17675,-0.73941 -1.52354,-1.64313 z m 227.41655,1.26557 c 0,-0.20765 0.6853,-0.9463 1.52289,-1.64144 1.27335,-1.05678 1.41968,-0.99492 0.89301,0.37756 -0.53789,1.40173 -2.4159,2.38422 -2.4159,1.26388 z m 16.232,-2.62244 c 0,-1.925 0.2058,-2.7125 0.45733,-1.75 0.25152,0.9625 0.25152,2.5375 0,3.5 -0.25153,0.9625 -0.45733,0.175 -0.45733,-1.75 z m 22.32037,-0.94214 c -0.96669,-1.06817 -1.56707,-2.51375 -1.33419,-3.21239 0.23471,-0.70414 1.13764,0.16142 2.02597,1.94213 1.85645,3.72133 1.73245,3.94901 -0.69178,1.27026 z m -6.98808,-0.35099 c 0.37553,-0.98622 0.93469,-1.54122 1.24258,-1.23333 0.30789,0.30789 6.4e-4,1.11479 -0.68278,1.79313 -0.98762,0.98026 -1.10248,0.8654 -0.5598,-0.5598 z M 25.46619,197.3125 c -1.24387,-1.58606 -1.2085,-1.62143 0.37756,-0.37756 0.9625,0.75485 1.75,1.54235 1.75,1.75 0,0.82304 -0.82119,0.29331 -2.12756,-1.37244 z m 173.12756,-1.25 c 0,-0.55 0.47656,-1 1.05902,-1 0.58246,0 0.7809,0.45 0.44098,1 -0.33992,0.55 -0.81648,1 -1.05902,1 -0.24254,0 -0.44098,-0.45 -0.44098,-1 z m 29.09019,-0.6849 c -0.12565,-3.04398 1.63036,-7.3151 3.0075,-7.3151 0.80165,0 0.83626,0.37651 0.1149,1.25 -0.56776,0.6875 -1.48228,2.825 -2.03226,4.75 -0.69202,2.42219 -1.02773,2.82717 -1.09014,1.3151 z m 21.90981,0.62588 c 0,-0.58246 0.45,-0.7809 1,-0.44098 0.55,0.33992 1,0.81648 1,1.05902 0,0.24254 -0.45,0.44098 -1,0.44098 -0.55,0 -1,-0.47656 -1,-1.05902 z m 12,-3.44098 c -0.70675,-0.85158 -1.06,-1.77333 -0.785,-2.04833 0.275,-0.275 1.07825,0.19675 1.785,1.04833 0.70675,0.85158 1.06,1.77333 0.785,2.04833 -0.275,0.275 -1.07825,-0.19675 -1.785,-1.04833 z m -50.97994,-5.97583 c -0.78875,-0.95039 -0.86462,-1.52417 -0.20152,-1.52417 1.20855,0 2.61759,1.8972 1.9241,2.5907 -0.2517,0.2517 -1.02686,-0.22824 -1.72258,-1.06653 z m 57.4489,-2.57439 c -0.95021,-1.53748 0.35135,-2.52947 1.63484,-1.24598 0.71818,0.71818 0.73543,1.27752 0.0524,1.69964 -0.55992,0.34605 -1.31919,0.1419 -1.68727,-0.45366 z M 33.59375,181.12152 c 0,-0.51754 0.44485,-1.21592 0.98855,-1.55194 0.56686,-0.35034 0.7345,0.0511 0.39301,0.94098 -0.66479,1.73242 -1.38156,2.04939 -1.38156,0.61096 z m 5,-0.059 c 1.95837,-1.2656 3.28218,-1.2656 2.5,0 -0.33992,0.55 -1.37898,0.99311 -2.30902,0.98469 -1.45727,-0.0132 -1.48367,-0.14929 -0.19098,-0.98469 z m 223.23207,-3 c 1.00012,-1.60145 0.99726,-2.40314 -0.0144,-4.02303 -0.92086,-1.47454 -0.97654,-2.55904 -0.20536,-4 1.34887,-2.52039 2.95699,-2.57566 2.30415,-0.0792 -0.27295,1.04377 0.03,2.8812 0.67333,4.08318 0.95623,1.78674 0.85314,2.5351 -0.56509,4.10224 -2.2817,2.52124 -3.78356,2.46426 -2.19265,-0.0832 z m -100.73207,-11 c -0.33992,-0.55 0.057,-1 0.88197,-1 0.825,0 1.77811,0.45 2.11803,1 0.33992,0.55 -0.057,1 -0.88197,1 -0.825,0 -1.77811,-0.45 -2.11803,-1 z m 5,-3 c -0.33992,-0.55 -0.14148,-1 0.44098,-1 0.58246,0 1.05902,0.45 1.05902,1 0,0.55 -0.19844,1 -0.44098,1 -0.24254,0 -0.7191,-0.45 -1.05902,-1 z m -36.62756,-2.75 c -1.24387,-1.58606 -1.2085,-1.62143 0.37756,-0.37756 0.9625,0.75485 1.75,1.54235 1.75,1.75 0,0.82304 -0.82119,0.29331 -2.12756,-1.37244 z m 36.62756,-0.29633 c -5.56364,-0.86047 -12.81859,-4.09239 -16.25,-7.23903 -2.78032,-2.54958 -2.97804,-5.71464 -0.35699,-5.71464 1.04116,0 2.13554,-0.63203 2.43197,-1.40451 0.51099,-1.33162 8.46013,-3.7941 11.67502,-3.61669 0.825,0.0455 4.2,0.0849 7.5,0.0875 6.43737,0.005 10.5,1.42091 10.5,3.65942 0,1.13295 -0.40804,1.10192 -2.22251,-0.16898 -2.56601,-1.79734 -6.77749,-2.07679 -6.77749,-0.44975 0,0.60884 0.69837,0.839 1.55194,0.51145 0.88992,-0.34149 1.29132,-0.17385 0.94098,0.39301 -0.3402,0.55046 0.49426,0.98855 1.88296,0.98855 7.01831,0 9.66941,3.79519 5.37412,7.69334 -5.75091,5.21918 -9.2313,6.34583 -16.25,5.26033 z m 5.75,-2.00625 c 2.0625,-0.57279 3.75,-1.41779 3.75,-1.87779 0,-0.46 1.0125,-1.14414 2.25,-1.5203 1.49988,-0.45592 1.80409,-0.8657 0.9125,-1.22913 -0.73563,-0.29986 -1.83813,-0.0446 -2.45,0.5673 -0.61188,0.61188 -2.11,1.1125 -3.32917,1.1125 -1.21916,0 -2.36666,0.40077 -2.55,0.8906 -0.18792,0.5021 -2.51441,0.54921 -5.33333,0.10798 -5.70719,-0.8933 -6.83973,-0.45138 -4.0573,1.58318 2.29692,1.67955 5.66577,1.79353 10.8073,0.36566 z m -0.54519,-11.56046 c 0.49865,-1.49783 -5.90101,-2.45175 -9.39986,-1.40113 -2.31202,0.69425 -1.75054,0.86972 3.19505,0.9985 4.52218,0.11776 5.50739,0.38314 4,1.07747 -1.87422,0.86329 -1.87944,0.90603 -0.0829,0.67971 1.05443,-0.13283 2.08388,-0.74238 2.28768,-1.35455 z m -4.45481,-5.04924 c -1.48421,-0.59889 -1.68935,-3.33772 -0.25,-3.33772 0.55,0 1,0.45 1,1 0,0.55 1.15156,1 2.55902,1 1.45136,0 2.2915,0.43284 1.94098,1 -0.64498,1.0436 -3.10799,1.20204 -5.25,0.33772 z m -0.72948,-5.96859 c -0.60917,-1.87725 -1.02726,-2.00413 -3.5126,-1.06602 -2.18395,0.82435 -3.31672,0.7358 -5.01539,-0.39207 -2.24319,-1.48943 -5.47026,-8.91104 -3.87469,-8.91104 0.48519,0 0.88216,0.45642 0.88216,1.01426 0,0.60479 1.31209,0.76401 3.25,0.39439 6.66207,-1.27067 7.94707,-0.92828 9.99042,2.66202 1.73117,3.04178 1.72856,3.05426 -0.49216,2.34943 -1.95872,-0.62167 -2.07008,-0.5128 -0.90784,0.88762 0.7286,0.87791 1.11027,2.40532 0.84815,3.39424 -0.42433,1.60091 -0.55239,1.56442 -1.16805,-0.33283 z m 12.47948,-0.16913 c 0,-0.99 0.54,-2.34 1.2,-3 0.66667,-0.66667 0.75556,-1.2 0.2,-1.2 -0.55,0 -1.50975,0.50975 -2.13278,1.13278 -0.6687,0.6687 -1.87727,0.80893 -2.95,0.34228 -0.99947,-0.43477 -2.42659,-0.68903 -3.17138,-0.56502 -1.05173,0.17512 -1.00195,-0.27739 0.22291,-2.02612 0.88912,-1.26939 1.3339,-3.22047 1.01962,-4.47267 -0.43421,-1.73004 0.0692,-2.52503 2.27709,-3.59595 2.07095,-1.00449 2.82548,-2.08753 2.80092,-4.02037 -0.0409,-3.21741 0.89396,-2.78352 2.9703,1.37859 1.92941,3.8676 2.00666,4.81505 0.19004,2.33067 -1.33342,-1.82356 -1.39211,-1.81875 -2.022,0.16587 -0.3568,1.12417 -1.65132,2.52784 -2.87672,3.11926 -2.17493,1.04971 -2.1625,1.07693 0.522,1.143 1.95308,0.0481 2.77037,-0.43945 2.82029,-1.68232 0.0596,-1.48314 0.19095,-1.44502 0.86161,0.25 0.43523,1.1 0.58046,2.5625 0.32273,3.25 -0.25774,0.6875 0.24596,1.25 1.11933,1.25 2.37844,0 2.97596,-4.22676 1.1988,-8.4801 -1.77742,-4.25396 -1.94559,-5.5199 -0.73328,-5.5199 1.46388,0 3.16052,4.94372 3.16052,9.2092 0,2.60337 -0.93388,5.70863 -2.54215,8.45294 -2.66832,4.55313 -4.45785,5.57192 -4.45785,2.53786 z m -125,-12.09235 c 0,-0.67413 -0.45,-0.94757 -1,-0.60765 -2.12353,1.31242 -0.8641,-1.27149 1.74285,-3.57569 1.99066,-1.75948 2.26489,-1.85425 1,-0.34557 -2.25062,2.68437 -2.24633,4.061 0.007,2.2937 1.61875,-1.26951 1.63997,-1.22245 0.28296,0.62756 -0.80686,1.1 -1.59436,2.1875 -1.75,2.41667 -0.15567,0.22916 -0.28301,-0.13489 -0.28301,-0.80902 z m 99,-1.55189 c 0,-2.52331 4.36514,-8.51913 5.42953,-7.45783 0.57254,0.57088 -4.15335,9.90207 -5.01502,9.90207 -0.22798,0 -0.41451,-1.09991 -0.41451,-2.44424 z m 4.01531,0.25326 c -0.008,-0.93004 0.43469,-1.9691 0.98469,-2.30902 1.2656,-0.78218 1.2656,0.54163 0,2.5 -0.8354,1.29269 -0.97149,1.26629 -0.98469,-0.19098 z m 33.98469,-11.86804 c 0,-0.58246 0.45,-0.7809 1,-0.44098 0.55,0.33992 1,0.81648 1,1.05902 0,0.24254 -0.45,0.44098 -1,0.44098 -0.55,0 -1,-0.47656 -1,-1.05902 z m -50.47301,-1.89731 c -0.32507,-0.52598 -1.21098,-0.71843 -1.96867,-0.42767 -0.80735,0.3098 -1.64646,-0.31835 -2.02703,-1.51742 -0.35717,-1.12533 -1.86032,-2.63951 -3.34034,-3.36484 -1.48002,-0.72534 -2.64519,-1.9867 -2.58927,-2.80303 0.11544,-1.68502 -1.49572,-3.38223 -3.35168,-3.53071 -3.67315,-0.29385 -4.25,-0.48387 -4.25,-1.4 0,-0.55 1.15714,-1 2.57143,-1 2.64285,0 5.81807,-2.27717 4.71428,-3.38095 -0.34047,-0.34048 0.0185,-0.62594 0.79762,-0.63436 1.18765,-0.0128 1.17966,-0.16522 -0.0494,-0.94259 -2.55287,-1.61461 3.71766,-3.32288 12.61731,-3.4373 4.51739,-0.0581 7.90585,-0.50417 7.60085,-1.00064 -0.93913,-1.52871 4.70269,0.34217 8.76484,2.9065 4.83816,3.05419 7.99515,6.40413 7.94248,8.4279 -0.0224,0.85879 -1.34427,3.08581 -2.9376,4.94892 -2.47403,2.89294 -3.34404,3.29806 -5.95936,2.775 -1.83698,-0.3674 -3.0624,-0.19872 -3.0624,0.42154 0,0.56871 -0.40219,0.78544 -0.89377,0.48164 -1.07013,-0.66139 -7.70611,1.97791 -8.59687,3.41919 -0.7947,1.28586 -5.19726,1.32915 -5.98237,0.0588 z m 4.53875,-1.07885 c 2.98919,-1.59977 2.29396,-2.60521 -1.49552,-2.16281 -2.43261,0.28399 -3.27372,0.80709 -2.89301,1.7992 0.63942,1.6663 1.77813,1.76065 4.38853,0.36361 z m -3.45407,-4.73916 c 1.03858,-0.23773 3.23833,-0.39804 4.88833,-0.35626 2.2732,0.0576 2.6366,-0.15596 1.5,-0.8814 -0.85711,-0.54705 -0.99931,-0.96394 -0.33179,-0.97269 0.64252,-0.008 1.99252,-0.28276 3,-0.60964 1.55374,-0.50412 1.6041,-0.41828 0.33179,0.5655 -1.21965,0.94307 -1.05607,1.03413 0.87523,0.4872 1.36369,-0.38618 2.13294,-0.2806 1.8063,0.24791 -0.60621,0.98086 5.71132,0.78699 7.34964,-0.22554 1.87351,-1.1579 0.9356,-2.05666 -2.28117,-2.18595 -3.06149,-0.12304 -3.10499,-0.0788 -0.75,0.76286 2.11671,0.75649 1.96339,0.82112 -1,0.42159 -1.925,-0.25954 -5.1875,-0.75779 -7.25,-1.10723 -2.63073,-0.44572 -3.75,-0.27134 -3.75,0.58422 0,0.87843 -1.1888,1.02285 -4.25,0.51631 -2.3375,-0.38678 -4.7,-0.97618 -5.25,-1.30977 -3.83734,-2.32745 -4.82004,0.74229 -1.03215,3.22421 1.6631,1.0897 2.27142,2.18702 1.86547,3.36501 -0.50936,1.47806 -0.37132,1.45133 0.89381,-0.17305 0.82291,-1.05658 2.34595,-2.11556 3.38454,-2.35328 z m 18.38833,-8.72566 c -0.68469,-0.825 -1.75229,-1.48569 -2.37244,-1.4682 -0.62016,0.0175 -0.25405,0.6925 0.81357,1.5 2.49367,1.88612 3.13966,1.87294 1.55887,-0.0318 z m -24.27083,-3.10417 c -0.3323,-0.33229 -1.1948,-0.36781 -1.91667,-0.0789 -0.79773,0.31922 -0.56078,0.55618 0.60417,0.60416 1.05416,0.0434 1.64479,-0.19292 1.3125,-0.52522 z m 56.09575,16.23009 c -9.07205,-3.42534 -9.34723,-4.82448 -0.41599,-2.1151 2.69991,0.81905 6.74991,1.49607 9,1.50449 2.68686,0.0101 3.62319,0.31175 2.72792,0.87895 -1.15087,0.72914 -1.15087,0.94806 0,1.40574 4.31295,1.71519 -6.62111,0.097 -11.31193,-1.67408 z m -1.32492,-3.62592 c -0.33992,-0.55 -0.16803,-1 0.38197,-1 0.55,0 1.27811,0.45 1.61803,1 0.33992,0.55 0.16803,1 -0.38197,1 -0.55,0 -1.27811,-0.45 -1.61803,-1 z m -135,-6 c -0.33992,-0.55 -0.16803,-1 0.38197,-1 0.55,0 1.27811,0.45 1.61803,1 0.33992,0.55 0.16803,1 -0.38197,1 -0.55,0 -1.27811,-0.45 -1.61803,-1 z m 124.5,-10.72554 c 0,-0.49071 0.68823,-1.76571 1.5294,-2.83333 1.48106,-1.879783 1.52057,-1.864596 1.25,0.48054 -0.25782,2.2346 -2.7794,4.36915 -2.7794,2.35279 z m -19.24761,-3.453627 c -2.54993,-2.730171 -4.75239,-3.055878 -4.75239,-0.702799 0,0.55 0.39901,0.753397 0.88669,0.451993 0.48768,-0.301403 1.50018,0.200076 2.25,1.114403 1.22237,1.49054 1.10486,1.58832 -1.13669,0.94584 -1.375,-0.3941 -4.975,-1.10356 -8,-1.57656 -3.025,-0.473008 -6.625,-1.136645 -8,-1.474751 -2.3583,-0.579895 -12.19293,0.485487 -18.25,1.977021 -5.85765,1.44242 -2.15304,-3.29935 6.44502,-8.249397 3.74896,-2.158333 3.9818,-2.169938 14.55744,-0.725518 5.91115,0.807345 11.5239,1.59757 12.47278,1.756056 2.69518,0.45016 7.77476,5.461686 7.77476,7.670589 0,2.62566 -0.92929,2.36599 -4.24761,-1.186877 z m -25.73659,-4.33987 c 0.78267,-0.943064 0.74905,-1.508261 -0.12175,-2.046444 -0.76341,-0.471813 -0.94189,-0.32094 -0.48838,0.412845 0.43487,0.703647 -0.28765,1.537468 -1.8455,2.129758 -1.40809,0.535357 -2.56017,1.167385 -2.56017,1.404508 0,0.867179 3.96593,-0.635656 5.0158,-1.900667 z m 15.9842,0.96002 c 0,-0.857459 -0.45,-1.280902 -1,-0.940983 -0.55,0.339919 -1,1.041476 -1,1.559017 0,0.517541 0.45,0.940983 1,0.940983 0.55,0 1,-0.701558 1,-1.559017 z m 109.66667,-14.10765 c -0.36667,-0.366666 -0.66667,-1.131666 -0.66667,-1.7 0,-0.626604 0.46577,-0.567562 1.18333,0.15 0.65084,0.650834 0.95084,1.415834 0.66667,1.7 -0.28417,0.284167 -0.81667,0.216667 -1.18333,-0.15 z m -64.26168,-4.583333 -1.90499,-2.25 2.25,1.904988 c 2.11444,1.790218 2.70524,2.595012 1.90499,2.595012 -0.18976,0 -1.20226,-1.0125 -2.25,-2.25 z m -73.76662,-4.25 c 0.31659,-0.825 0.75246,-1.5 0.96862,-1.5 0.21615,0 0.39301,0.675 0.39301,1.5 0,0.825 -0.43588,1.5 -0.96862,1.5 -0.53273,0 -0.70959,-0.675 -0.39301,-1.5 z M 293.92615,31.753693 c 1.00783,-0.655156 4.49533,-3.108854 7.75,-5.452662 3.25468,-2.343808 5.9176,-3.860516 5.9176,-3.370462 0,1.294663 -8.34935,7.934056 -11.46902,9.120154 -3.49088,1.327228 -4.4896,1.192299 -2.19858,-0.29703 z m -30.76811,-0.984321 c 0.37553,-0.986221 0.93469,-1.541221 1.24258,-1.233333 0.30789,0.307887 6.4e-4,1.114794 -0.68278,1.793128 -0.98762,0.980267 -1.10248,0.865403 -0.5598,-0.559795 z M 236.59375,25.0625 c 0.825,-0.533156 2.85,-0.969374 4.5,-0.969374 2.30174,0 2.65087,0.225625 1.5,0.969374 -0.825,0.533156 -2.85,0.969374 -4.5,0.969374 -2.30174,0 -2.65087,-0.225625 -1.5,-0.969374 z m 1,-8.845012 c 0,-1.326413 3.93744,-4.550883 4.66667,-3.821655 0.35992,0.359923 -0.16258,1.557164 -1.16112,2.660536 -1.88671,2.084788 -3.50555,2.620985 -3.50555,1.161119 z M 49.99874,11.916991 c -1.89176,-2.130611 -1.88975,-2.137518 0.28932,-0.994623 2.43073,1.27489 3.92743,3.140132 2.51969,3.140132 -0.49721,0 -1.76127,-0.965479 -2.80901,-2.145509 z M 235.09375,8.0625 c 0.33992,-0.55 1.49148,-1 2.55902,-1 1.06754,0 1.94098,0.45 1.94098,1 0,0.55 -1.15156,1 -2.55902,1 -1.45136,0 -2.2915,-0.432842 -1.94098,-1 z M 76.88968,4.734934 c -6.4938,-2.804182 -7.87823,-4.134539 -3.29593,-3.167212 3.56227,0.751997 11,4.142996 11,5.015102 0,0.973255 -2.63413,0.341437 -7.70407,-1.84789 z M 235.24874,4.233759 c -2.82092,-3.117078 -1.94477,-4.513788 1.35677,-2.162887 1.65646,1.179509 2.75491,2.560151 2.44098,3.068095 -0.85733,1.387194 -1.96129,1.124062 -3.79775,-0.905208 z M 218.70755,2.480038 c -2.28915,-2.910182 -3.57992,-6.284754 -2.72927,-7.135399 0.79066,-0.790661 3.61547,1.698066 3.61547,3.185318 0,0.672412 0.9,2.037057 2,3.032543 1.1,0.995486 2,2.190231 2,2.654988 0,1.778952 -2.9435,0.732292 -4.8862,-1.73745 z m 31.8862,-1.713773 c 0,-2.662881 13.4002,-15.707037 16.10672,-15.678761 2.19093,0.02289 2.01281,0.373429 -2.10672,4.146036 -2.475,2.266568 -6.6375,6.136988 -9.25,8.600934 -3.0253,2.853274 -4.75,3.917791 -4.75,2.931791 z m -136,-8.08132 c 0,-0.207656 0.7875,-0.995156 1.75,-1.75 1.58606,-1.243871 1.62143,-1.208501 0.37756,0.377555 -1.30637,1.665748 -2.12756,2.195479 -2.12756,1.372445 z m 117.25,-2.113313 c -4.15927,-1.807791 -4.4188,-3.81254 -0.30805,-2.379524 2.83618,0.988698 6.21597,3.911355 4.43049,3.83125 -0.47984,-0.02153 -2.33494,-0.674804 -4.12244,-1.451726 z m -23.86241,-2.04034 c -0.91218,-1.392165 -1.33381,-2.854665 -0.93697,-3.25 0.75117,-0.748307 4.54938,3.335949 4.54938,4.891992 0,1.746964 -1.98224,0.845949 -3.61241,-1.641992 z m 62.11241,-0.468792 c 1.5808,-1.65 3.46846,-3 4.19481,-3 0.79363,0 0.25396,1.197139 -1.35239,3 -1.47016,1.65 -3.35782,3 -4.19481,3 -1.06186,0 -0.65313,-0.906693 1.35239,-3 z m -46.92275,0.125 c -0.29742,-0.48125 0.57602,-0.875 1.94099,-0.875 1.36497,0 2.48176,0.39375 2.48176,0.875 0,0.48125 -0.87344,0.875 -1.94098,0.875 -1.06754,0 -2.18434,-0.39375 -2.48177,-0.875 z m 22.42275,-1.249985 c 0,-1.302696 2.41046,-2.096096 5.17727,-1.704096 1.94639,0.275761 1.71513,0.516448 -1.42727,1.48548 -2.17873,0.671862 -3.75,0.763463 -3.75,0.218616 z m -41.5,-0.875015 c -0.33992,-0.55 -0.14148,-1 0.44098,-1 0.58246,0 1.05902,0.45 1.05902,1 0,0.55 -0.19844,1 -0.44098,1 -0.24254,0 -0.7191,-0.45 -1.05902,-1 z"
     id="path190"
     inkscape:connector-curvature="0" />
</svg>
